<svg id="Layer_1" data-name="Layer 1" xmlns="http://www.w3.org/2000/svg" xmlns:xlink="http://www.w3.org/1999/xlink" viewBox="0 0 353 417.93"><defs><linearGradient id="linear-gradient" x1="164.19" y1="116.11" x2="181.53" y2="214.45" gradientUnits="userSpaceOnUse"><stop offset="0" stop-color="#00602d"/><stop offset="0.08" stop-color="#09652b"/><stop offset="0.21" stop-color="#217327"/><stop offset="0.37" stop-color="#498920"/><stop offset="0.56" stop-color="#80a816"/><stop offset="0.77" stop-color="#c6cf0a"/><stop offset="0.93" stop-color="#feee00"/></linearGradient><linearGradient id="linear-gradient-2" x1="173.82" y1="144.88" x2="173.82" y2="263.98" gradientUnits="userSpaceOnUse"><stop offset="0" stop-color="#f9ec3a"/><stop offset="1" stop-color="#de9e14"/></linearGradient><clipPath id="clip-path"><path d="M73.55,209.26V264a192.22,192.22,0,0,1,18.29-13.49,74.1,74.1,0,0,1,117.67-47.36,306.86,306.86,0,0,1,64.57-5L153.35,144.88Z" style="fill:none"/></clipPath><radialGradient id="radial-gradient" cx="239.71" cy="261.19" r="92.32" gradientTransform="translate(-65.25) scale(0.96 1)" gradientUnits="userSpaceOnUse"><stop offset="0.83" stop-color="#fefac8"/><stop offset="1" stop-color="#fff" stop-opacity="0"/></radialGradient><linearGradient id="linear-gradient-3" x1="147.41" y1="189.51" x2="152.29" y2="245.2" gradientUnits="userSpaceOnUse"><stop offset="0" stop-color="#77abdc"/><stop offset="1" stop-color="#003f6c"/></linearGradient><linearGradient id="linear-gradient-4" x1="173.82" y1="222.73" x2="173.82" y2="274.07" gradientUnits="userSpaceOnUse"><stop offset="0" stop-color="#feee00"/><stop offset="0.85" stop-color="#007c3c"/></linearGradient></defs><title>logo-mma-gov-vertical-colorido</title><path d="M73.69,67.92,75,51a8.62,8.62,0,0,1,1.28-.07,7.93,7.93,0,0,1,1.25.07l2.83,8.71c.15.41.35,1.07.59,2s.39,1.46.42,1.64h.12a30,30,0,0,1,1-3.62L85.37,51a9.15,9.15,0,0,1,1.26-.07,9,9,0,0,1,1.25.07l1.31,16.92a3.48,3.48,0,0,1-.93.12,5.14,5.14,0,0,1-.9-.07L86.64,57.7c0-.75-.12-2.31-.2-4.69h-.12L82.4,65.29a7.16,7.16,0,0,1-1,.1,5.15,5.15,0,0,1-.9-.1L76.59,53h-.12c0,.41,0,1.2-.09,2.34s-.08,1.94-.11,2.35L75.58,68a5.94,5.94,0,0,1-1,.07A3.48,3.48,0,0,1,73.69,67.92Z" style="fill:#5b5b5f"/><path d="M92.86,67.94V51a4.6,4.6,0,0,1,.91-.07,5.7,5.7,0,0,1,1,.07V67.94a5.63,5.63,0,0,1-1,.08A4.51,4.51,0,0,1,92.86,67.94Z" style="fill:#5b5b5f"/><path d="M110.4,50.93l.15.12V67.94a7.43,7.43,0,0,1-1.16.08,8.1,8.1,0,0,1-1.2-.08l-6-11.24c-.5-.92-1.06-2.06-1.69-3.42h-.07c.09,3.08.14,4.86.14,5.36v9.3a6.48,6.48,0,0,1-.91.08,5.18,5.18,0,0,1-.85-.08V51a7.16,7.16,0,0,1,1.13-.07,8,8,0,0,1,1.18.07l6,11.24c.4.71,1,1.87,1.73,3.49h.08c-.12-2.11-.17-4-.17-5.65V52.17a1.77,1.77,0,0,1,.19-1,.93.93,0,0,1,.8-.28Z" style="fill:#5b5b5f"/><path d="M114.57,67.94V51a4.43,4.43,0,0,1,.9-.07,5.63,5.63,0,0,1,1,.07V67.94a5.54,5.54,0,0,1-1,.08A4.33,4.33,0,0,1,114.57,67.94Z" style="fill:#5b5b5f"/><path d="M119,66.38a2,2,0,0,1,.87-1.51,8.84,8.84,0,0,0,5,1.71,4.61,4.61,0,0,0,2.78-.75,2.36,2.36,0,0,0,1-2c0-1.27-.87-2.3-2.62-3.08l-2.91-1.26q-3.34-1.44-3.35-4.17a4.17,4.17,0,0,1,.4-1.78A4.43,4.43,0,0,1,121.26,52a5.29,5.29,0,0,1,1.69-1,6.48,6.48,0,0,1,2.21-.36,11.42,11.42,0,0,1,4.91,1.19,1.94,1.94,0,0,1-.76,1.59,11.74,11.74,0,0,0-2.25-.89,7.55,7.55,0,0,0-1.9-.27,4.19,4.19,0,0,0-1.42.22,3.82,3.82,0,0,0-1.1.58,2.54,2.54,0,0,0-.7.84,2.16,2.16,0,0,0-.25,1,2.26,2.26,0,0,0,.63,1.7,5.78,5.78,0,0,0,1.78,1.08L126.9,59c2.46,1.08,3.69,2.57,3.69,4.49a4.41,4.41,0,0,1-1.46,3.47,6.62,6.62,0,0,1-4.54,1.32A9.27,9.27,0,0,1,119,66.38Z" style="fill:#5b5b5f"/><path d="M139.13,52.64l-1.37,0V67.94a5,5,0,0,1-.93.08,5.35,5.35,0,0,1-1-.08V52.61l-1.34,0h-3.18a4.59,4.59,0,0,1-.07-.81,5.07,5.07,0,0,1,.07-.83h10.89a1.89,1.89,0,0,1,.15.79c0,.57-.39.85-1.17.85Z" style="fill:#5b5b5f"/><path d="M146.15,65.38l0,1c.56,0,1.07,0,1.54,0h6.79a4,4,0,0,1,0,.79,1.06,1.06,0,0,1-1.21.87h-7.81a1,1,0,0,1-.79-.33,1.38,1.38,0,0,1-.28-.91V51.15l.15-.15H154a4.23,4.23,0,0,1,.05.78,2.84,2.84,0,0,1-.12.86h-7.84l0,1.54v4.38l1.48,0h5.14a4.86,4.86,0,0,1,.07.82,4.37,4.37,0,0,1-.07.79h-5.14l-1.48,0Zm.94-16.56,4.74-2.76a2.35,2.35,0,0,1,.94,1.67l-5.09,2.13A1.43,1.43,0,0,1,147.09,48.82Z" style="fill:#5b5b5f"/><path d="M157.46,51l5-.07a5.65,5.65,0,0,1,4,1.29,4.62,4.62,0,0,1,1.42,3.62,4.79,4.79,0,0,1-.87,2.87,4.38,4.38,0,0,1-2.38,1.65,3,3,0,0,1,1.66,2l1.29,3.34a6,6,0,0,0,.55,1.13,2.35,2.35,0,0,0,.52.63,1.44,1.44,0,0,1-1.32.62,1.12,1.12,0,0,1-.8-.27,2.77,2.77,0,0,1-.56-1l-1.44-3.77a4.78,4.78,0,0,0-1-1.7,2.31,2.31,0,0,0-1.72-.58h-2.58v7.14a5.86,5.86,0,0,1-1,.08,4.66,4.66,0,0,1-.91-.08V51.15Zm1.73,1.46v6.78l1.28,0h1.8a4.69,4.69,0,0,0,1.72-.28,3.05,3.05,0,0,0,1.11-.72,2.5,2.5,0,0,0,.59-1.07,4.45,4.45,0,0,0,.17-1.28,4.56,4.56,0,0,0-.17-1.31,2.5,2.5,0,0,0-.59-1.07,3,3,0,0,0-1.13-.71,5.35,5.35,0,0,0-1.78-.26h-1.78C159.91,52.49,159.51,52.48,159.19,52.46Z" style="fill:#5b5b5f"/><path d="M171.12,67.94V51a4.6,4.6,0,0,1,.91-.07,5.7,5.7,0,0,1,1,.07V67.94a5.63,5.63,0,0,1-1,.08A4.51,4.51,0,0,1,171.12,67.94Z" style="fill:#5b5b5f"/><path d="M178.64,66.8Q176,64.47,176,59.48a13.83,13.83,0,0,1,.43-3.58,8.38,8.38,0,0,1,1.28-2.78,5.85,5.85,0,0,1,2.1-1.79,6.27,6.27,0,0,1,2.86-.63,6,6,0,0,1,3,.71,6.17,6.17,0,0,1,2.09,1.91A8.23,8.23,0,0,1,189,56.11a13.49,13.49,0,0,1,.4,3.35,13.77,13.77,0,0,1-.44,3.58,8.09,8.09,0,0,1-1.27,2.78,5.75,5.75,0,0,1-2.1,1.79,6.34,6.34,0,0,1-2.89.63A5.79,5.79,0,0,1,178.64,66.8Zm-.42-9.86a7.12,7.12,0,0,0-.16,1.24c0,.42,0,.85,0,1.28a18.37,18.37,0,0,0,.17,2.38,8.55,8.55,0,0,0,.67,2.34A4.69,4.69,0,0,0,180.28,66a3.83,3.83,0,0,0,2.4.71,4.12,4.12,0,0,0,1.74-.35,3.92,3.92,0,0,0,1.26-.91,4.12,4.12,0,0,0,.83-1.31,8.77,8.77,0,0,0,.5-1.55,13.14,13.14,0,0,0,.26-1.61c0-.53.07-1,.07-1.49a16.93,16.93,0,0,0-.17-2.37,7.83,7.83,0,0,0-.68-2.34A4.82,4.82,0,0,0,185.07,53a3.72,3.72,0,0,0-2.39-.71,4,4,0,0,0-1.91.41,3.8,3.8,0,0,0-1.3,1.07,5.06,5.06,0,0,0-.79,1.49A12.56,12.56,0,0,0,178.22,56.94Z" style="fill:#5b5b5f"/><path d="M206.12,66.78a4.18,4.18,0,0,1-.84.53,6.91,6.91,0,0,1-1.05.4,9.35,9.35,0,0,1-1.12.24,6.24,6.24,0,0,1-1,.09l-1.74,0-3.47-.08-.15-.15V51.15l.15-.15c1.44,0,3.12-.07,5-.07a6.92,6.92,0,0,1,3.22.67,5.45,5.45,0,0,1,2.07,1.82,7.61,7.61,0,0,1,1.11,2.73,17.11,17.11,0,0,1,.32,3.36c0,.83,0,1.59-.11,2.29a9.47,9.47,0,0,1-.41,2,7,7,0,0,1-.8,1.65A6.41,6.41,0,0,1,206.12,66.78Zm-7.46-.33,3.27,0a4.44,4.44,0,0,0,2.33-.56,4.19,4.19,0,0,0,1.45-1.48,6.39,6.39,0,0,0,.75-2.07,12.67,12.67,0,0,0,.21-2.29A26.11,26.11,0,0,0,206.5,57a6.91,6.91,0,0,0-.72-2.4,4,4,0,0,0-1.52-1.57,4.59,4.59,0,0,0-2.33-.56l-3.27,0Z" style="fill:#5b5b5f"/><path d="M213.22,66.8c-1.76-1.55-2.63-4-2.63-7.32A13.83,13.83,0,0,1,211,55.9a8.38,8.38,0,0,1,1.28-2.78,5.85,5.85,0,0,1,2.1-1.79,6.27,6.27,0,0,1,2.86-.63,6.05,6.05,0,0,1,3,.71,6.17,6.17,0,0,1,2.09,1.91,8.23,8.23,0,0,1,1.23,2.79,13.49,13.49,0,0,1,.4,3.35,13.77,13.77,0,0,1-.44,3.58,8.28,8.28,0,0,1-1.27,2.78,5.83,5.83,0,0,1-2.1,1.79,6.37,6.37,0,0,1-2.89.63A5.78,5.78,0,0,1,213.22,66.8Zm-.42-9.86a8.23,8.23,0,0,0-.17,1.24c0,.42,0,.85,0,1.28a18.37,18.37,0,0,0,.17,2.38,8.55,8.55,0,0,0,.67,2.34A4.77,4.77,0,0,0,214.85,66a3.88,3.88,0,0,0,2.41.71,4.12,4.12,0,0,0,1.74-.35,4,4,0,0,0,1.26-.91,4.12,4.12,0,0,0,.83-1.31,8.77,8.77,0,0,0,.5-1.55,13.14,13.14,0,0,0,.26-1.61c.05-.53.07-1,.07-1.49a16.93,16.93,0,0,0-.17-2.37,8.13,8.13,0,0,0-.68-2.34A4.82,4.82,0,0,0,219.65,53a3.72,3.72,0,0,0-2.39-.71,4,4,0,0,0-1.91.41,3.8,3.8,0,0,0-1.3,1.07,5.33,5.33,0,0,0-.8,1.49A14.18,14.18,0,0,0,212.8,56.94Z" style="fill:#5b5b5f"/><path d="M73.2,92.57l1.32-16.86a12.64,12.64,0,0,1,2.2-.18,11.71,11.71,0,0,1,2.14.18l1.91,6.87c.51,2,.83,3.46.94,4.24h.18c.11-.78.43-2.19.94-4.24l1.89-6.87a13.29,13.29,0,0,1,4.36,0L90.4,92.57a6.27,6.27,0,0,1-1.61.18,9.73,9.73,0,0,1-1.55-.1l-.47-8c-.13-2-.19-3.85-.19-5.39H86.4L83.5,90.1a12.1,12.1,0,0,1-3.4,0L77.2,79.3H77c0,2-.09,3.83-.19,5.39l-.47,8a9.73,9.73,0,0,1-1.55.1A6.33,6.33,0,0,1,73.2,92.57Z" style="fill:#5b5b5f"/><path d="M96.35,88.38l0,1.54,1.74,0h6.08a7.36,7.36,0,0,1-.08,1.22,1.87,1.87,0,0,1-2.13,1.59H95a1.82,1.82,0,0,1-1.4-.54,2,2,0,0,1-.51-1.45V75.86l.17-.18h10.35a7.07,7.07,0,0,1,.12,1.33,4.51,4.51,0,0,1-.27,1.48h-7.1l0,1.71v2.55l1.61,0h4.19a4.19,4.19,0,0,1,.2,1.36,4.26,4.26,0,0,1-.2,1.37h-5.8Z" style="fill:#5b5b5f"/><path d="M106.32,92.62V75.68a9,9,0,0,1,1.64-.12,10.38,10.38,0,0,1,1.71.12V92.62a9.3,9.3,0,0,1-1.71.13A8.1,8.1,0,0,1,106.32,92.62Z" style="fill:#5b5b5f"/><path d="M114.5,91.46c-1.76-1.52-2.65-3.95-2.65-7.29a13.33,13.33,0,0,1,.48-3.75,8,8,0,0,1,1.42-2.77A6.17,6.17,0,0,1,116,75.93a8,8,0,0,1,6,0,6.1,6.1,0,0,1,2.24,1.72,7.9,7.9,0,0,1,1.4,2.78,13,13,0,0,1,.49,3.74,12.85,12.85,0,0,1-.49,3.72,7.8,7.8,0,0,1-1.4,2.76,6.12,6.12,0,0,1-2.24,1.73,7.43,7.43,0,0,1-3,.59A6.91,6.91,0,0,1,114.5,91.46Zm8.19-7.29c0-4.16-1.22-6.23-3.67-6.23s-3.67,2.07-3.67,6.23,1.22,6.2,3.67,6.2S122.69,88.3,122.69,84.17Z" style="fill:#5b5b5f"/><path d="M141.32,88.78l-1.22,0h-3.47l-1.22,0-1.16,3.87a7,7,0,0,1-1.48.12,4.51,4.51,0,0,1-1.55-.22l-.12-.17,5.53-16.7a15.42,15.42,0,0,1,2-.12,10.14,10.14,0,0,1,1.86.15l5.43,16.69a3.38,3.38,0,0,1-1.73.42,2.15,2.15,0,0,1-1.43-.37A3,3,0,0,1,142,91Zm-5.09-2.63,1.12,0h2.13l1.05,0-.75-2.53c-.56-1.88-1-3.49-1.34-4.81h-.15c-.15.71-.51,2.11-1.09,4.19Z" style="fill:#5b5b5f"/><path d="M146.87,92.57l1.32-16.86a12.64,12.64,0,0,1,2.2-.18,11.71,11.71,0,0,1,2.14.18l1.91,6.87c.51,2,.83,3.46.94,4.24h.18c.11-.78.43-2.19.94-4.24l1.89-6.87a13.29,13.29,0,0,1,4.36,0l1.32,16.86a6.27,6.27,0,0,1-1.61.18,9.73,9.73,0,0,1-1.55-.1l-.47-8c-.13-2-.19-3.85-.19-5.39h-.18l-2.9,10.8a12.1,12.1,0,0,1-3.4,0l-2.9-10.8h-.17c0,2-.1,3.83-.2,5.39l-.47,8a9.73,9.73,0,0,1-1.55.1A6.33,6.33,0,0,1,146.87,92.57Z" style="fill:#5b5b5f"/><path d="M166.92,75.66l3.28-.08,2.15,0a6.61,6.61,0,0,1,4.17,1.15A4,4,0,0,1,178,80.05a3.73,3.73,0,0,1-.62,2.08,3.53,3.53,0,0,1-1.66,1.37,4.3,4.3,0,0,1,1.19.6,4.47,4.47,0,0,1,1,1,5,5,0,0,1,.66,1.27,4.71,4.71,0,0,1,.23,1.44,4.46,4.46,0,0,1-1.56,3.66,6.94,6.94,0,0,1-4.49,1.28l-2.36,0-3.44-.08-.18-.15V75.81ZM170,78v4.54h2.16c1.65,0,2.48-.76,2.48-2.29a2.29,2.29,0,0,0-.36-1.41,1.8,1.8,0,0,0-1-.65,5.66,5.66,0,0,0-1.5-.16C171.25,78,170.65,78,170,78Zm2.44,7H170v5.41c.32,0,.68,0,1.07,0s.8,0,1.2,0a8.77,8.77,0,0,0,1.16-.11A2.26,2.26,0,0,0,175.16,89a2.9,2.9,0,0,0,.27-1.34,2.81,2.81,0,0,0-.18-1,2.51,2.51,0,0,0-.52-.86,2.58,2.58,0,0,0-.91-.6A3.62,3.62,0,0,0,172.48,85Z" style="fill:#5b5b5f"/><path d="M181,92.62V75.68a9.1,9.1,0,0,1,1.64-.12,10.38,10.38,0,0,1,1.71.12V92.62a9.3,9.3,0,0,1-1.71.13A8.16,8.16,0,0,1,181,92.62Z" style="fill:#5b5b5f"/><path d="M190.81,88.38l0,1.54,1.74,0h6.07a7.58,7.58,0,0,1-.07,1.22,1.87,1.87,0,0,1-2.13,1.59h-7a1.81,1.81,0,0,1-1.4-.54,2,2,0,0,1-.51-1.45V75.86l.17-.18H198a7.06,7.06,0,0,1,.13,1.33,4.29,4.29,0,0,1-.28,1.48h-7.09l0,1.71v2.55l1.61,0h4.19a4.19,4.19,0,0,1,.2,1.36,4.26,4.26,0,0,1-.2,1.37h-5.8Z" style="fill:#5b5b5f"/><path d="M213.48,75.53l.17.18V92.57a8.7,8.7,0,0,1-1.94.18,13.48,13.48,0,0,1-2-.13L205.12,83c-.67-1.45-1.16-2.61-1.49-3.47l-.1,0q.27,3.49.27,6.74v6.3a8.3,8.3,0,0,1-1.57.13,7.59,7.59,0,0,1-1.53-.13V75.73a8.71,8.71,0,0,1,1.89-.17,15.08,15.08,0,0,1,2,.12l4.51,9.6L210.75,89l.07,0c-.16-2.4-.25-4.66-.25-6.8V77.59A2.35,2.35,0,0,1,211,76a1.82,1.82,0,0,1,1.42-.48Z" style="fill:#5b5b5f"/><path d="M222.65,80.27V92.62a9.13,9.13,0,0,1-1.67.13,9.25,9.25,0,0,1-1.68-.13V80.27l0-1.83-1.51,0h-2.76a7.27,7.27,0,0,1-.12-1.39,7.42,7.42,0,0,1,.12-1.39h11.86a4.9,4.9,0,0,1,.17,1.35,1.32,1.32,0,0,1-.42,1.08,2.07,2.07,0,0,1-1.36.35h-1.17l-1.51,0Z" style="fill:#5b5b5f"/><path d="M231.53,88.38l0,1.54,1.73,0h6.08a7.58,7.58,0,0,1-.07,1.22,1.88,1.88,0,0,1-2.14,1.59h-7a1.84,1.84,0,0,1-1.4-.54,2,2,0,0,1-.51-1.45V75.86l.18-.18h10.34a7.06,7.06,0,0,1,.13,1.33,4.29,4.29,0,0,1-.28,1.48h-7.09l0,1.71v2.55l1.62,0h4.19a4.19,4.19,0,0,1,.2,1.36,4.26,4.26,0,0,1-.2,1.37h-5.81Z" style="fill:#5b5b5f"/><path d="M88,312c9.85,0,14.6,4.1,14.6,10.9a9.07,9.07,0,0,1-6.29,8.43c4.55,1.2,8.5,5.35,8.5,10.53,0,6.68-4.82,11.74-15.94,11.74-5.42,0-9.78-.12-14.8-.18l-.4-.42v-40.4l.4-.42C78.94,312.07,83.56,312,88,312Zm-7.3,17.28h7c6.3,0,7.7-3.37,7.7-6.2s-1.27-6.2-7.56-6.2c-1.88,0-5,0-7.17-.06Zm0,4.94v14.57c2.81,0,5.63-.07,8.1-.07,7.24,0,8.71-4.15,8.71-7.22s-1.94-7.28-9.11-7.28Z" style="fill:#005425"/><path d="M131.57,335.25c2.21.72,3.82,2.77,4.76,5.12l2.95,7a9.28,9.28,0,0,0,3,4.34,6.3,6.3,0,0,1-4.82,2c-2.68,0-3.62-1.32-4.69-3.91l-3.35-8.13c-1.14-2.77-2.61-4.93-6.77-4.93h-5.49v16.55a22.93,22.93,0,0,1-3.55.24,22,22,0,0,1-3.48-.24V312.55l.4-.42c5-.06,9.85-.18,14.4-.18,9.31,0,15.21,4.34,15.21,12.34A11.27,11.27,0,0,1,131.57,335.25Zm-14.4-3.61c2.61-.06,5.56-.12,7.44-.12,6.56,0,8.17-3.74,8.17-7.23,0-3.67-1.61-7.28-8.17-7.28-2,0-5.16,0-7.44-.06Z" style="fill:#005425"/><path d="M156.28,343.32l-3.55,10.05a16.32,16.32,0,0,1-3.08.24,14.73,14.73,0,0,1-3.48-.42l-.2-.3,15.14-40.7a30.32,30.32,0,0,1,4.08-.24,28.77,28.77,0,0,1,4,.24l15,40.7a8.75,8.75,0,0,1-4.16.84c-2.21,0-3.35-.72-4.22-3.37l-2.47-7c-1.14,0-3.49.06-4,.06h-9.17C159.63,343.38,157.42,343.32,156.28,343.32Zm1.81-5.18c1.07,0,2.88-.06,3.42-.06h6.7c.46,0,2.27.06,3.35.06l-3.09-8.73c-1.2-3.49-2.61-7.71-3.55-10.9h-.33c-.67,2.71-1.88,6.51-2.61,8.73Z" style="fill:#005425"/><path d="M190.57,344.64a28,28,0,0,0,13.47,4.1c5.42,0,8.5-2.35,8.57-5.66,0-2.83-2.21-5-6.09-6.51l-7.91-3.07c-5.63-2.16-9.18-5.29-9.18-10.41,0-6.56,6.17-11.68,15.14-11.68a35.86,35.86,0,0,1,14.2,3.13,7.19,7.19,0,0,1-2.61,5,31,31,0,0,0-11.45-2.83c-5,0-8,2.47-8,5.66,0,2.65,2.28,4.15,5.56,5.41l7.77,3c5.76,2.17,10.05,5.84,10.05,11.2,0,6.93-5.36,12.1-16.41,12.1a31.38,31.38,0,0,1-16.08-4.51A7.74,7.74,0,0,1,190.57,344.64Z" style="fill:#005425"/><path d="M228.37,312.19a23,23,0,0,1,3.55-.24,23.53,23.53,0,0,1,3.55.24v41.12a23.53,23.53,0,0,1-3.55.24,23,23,0,0,1-3.55-.24Z" style="fill:#005425"/><path d="M273.53,347.77a16.58,16.58,0,0,1-.21,2.53c-.4,2.05-2.07,3.07-4.62,3.07H251.22c-2.41,0-4.15-1.38-4.15-4V312.31l.46-.36h2.68c2.95,0,4,1.27,4,4.1v32c2.08-.18,4.16-.24,6-.24Z" style="fill:#005425"/><path d="M80.5,298.37H77.71v6.89a13.81,13.81,0,0,1-4.06,0V284.69l.21-.18c2.42-.06,4.46-.12,6.64-.12,4.19,0,7.19,2.27,7.19,7C87.69,296,84.69,298.37,80.5,298.37Zm-2.79-3.09c1,0,2.09-.06,2.55-.06,2.7,0,3.24-2.22,3.24-3.82s-.54-3.83-3.24-3.83c-.76,0-1.64,0-2.55,0Z" style="fill:#005425"/><path d="M92.54,300.56l-1.42,4.73a8,8,0,0,1-1.76.15,6.4,6.4,0,0,1-1.94-.27l-.15-.21L94,284.54a20.51,20.51,0,0,1,2.37-.15,15.24,15.24,0,0,1,2.33.18L105.38,305a5.27,5.27,0,0,1-2.34.51c-1.3,0-1.94-.45-2.43-2.18l-.85-2.76-1.48,0H94C93.73,300.59,93,300.59,92.54,300.56Zm1-3.22,1.36,0h2.61l1.27,0-.91-3.09c-.51-1.73-1.18-4.07-1.63-5.89h-.19c-.3,1.55-.94,3.73-1.33,5.13Z" style="fill:#005425"/><path d="M109.59,290.15c0-.82,0-1.39,0-2.24h0l-1.82,0h-3.36a8.28,8.28,0,0,1-.16-1.7,8.4,8.4,0,0,1,.16-1.7h14.5a6.42,6.42,0,0,1,.21,1.58c0,1.33-.7,1.82-2.19,1.82h-1.42l-1.82,0h0c0,.85,0,1.42,0,2.24v15.11a14.08,14.08,0,0,1-4.1,0Z" style="fill:#005425"/><path d="M132.19,296.34a4.05,4.05,0,0,1,2.25,2.67l1.12,3.06a5,5,0,0,0,1.43,2.22,3.45,3.45,0,0,1-2.7,1.21c-1.49,0-2-.82-2.58-2.4l-1.28-3.61a2.73,2.73,0,0,0-2.82-2.18h-1.85v7.95a12.3,12.3,0,0,1-2,.15,12,12,0,0,1-2-.15V284.69l.21-.18c2.43-.06,4.73-.12,6.92-.12,4.21,0,7.12,2.09,7.12,6.4A5.78,5.78,0,0,1,132.19,296.34Zm-6.43-2.18c1.06-.06,2.22-.1,2.79-.1,2.64,0,3.25-1.6,3.25-3.27s-.61-3.28-3.25-3.28c-.73,0-1.85,0-2.79,0Z" style="fill:#005425"/><path d="M140.26,284.54a12.07,12.07,0,0,1,2-.15,12.34,12.34,0,0,1,2,.15v20.72a12.34,12.34,0,0,1-2,.15,12.07,12.07,0,0,1-2-.15Z" style="fill:#005425"/><path d="M152.64,300.56l-1.43,4.73a8,8,0,0,1-1.76.15,6.5,6.5,0,0,1-1.94-.27l-.15-.21,6.76-20.42a20.51,20.51,0,0,1,2.37-.15,15.37,15.37,0,0,1,2.34.18L165.47,305a5.27,5.27,0,0,1-2.34.51c-1.3,0-1.94-.45-2.42-2.18l-.85-2.76-1.49,0h-4.25C153.82,300.59,153.12,300.59,152.64,300.56Zm1-3.22,1.36,0h2.61c.28,0,.85,0,1.28,0l-.91-3.09c-.52-1.73-1.19-4.07-1.64-5.89h-.18c-.31,1.55-.94,3.73-1.34,5.13Z" style="fill:#005425"/><path d="M178.27,300.56l-1.42,4.73a8,8,0,0,1-1.76.15,6.4,6.4,0,0,1-1.94-.27L173,305l6.77-20.42a20.51,20.51,0,0,1,2.37-.15,15.34,15.34,0,0,1,2.33.18L191.1,305a5.19,5.19,0,0,1-2.33.51c-1.31,0-1.94-.45-2.43-2.18l-.85-2.76-1.48,0h-4.25C179.46,300.59,178.76,300.59,178.27,300.56Zm1-3.22,1.37,0h2.61l1.27,0-.91-3.09c-.51-1.73-1.18-4.07-1.64-5.89h-.18c-.3,1.55-.94,3.73-1.33,5.13Z" style="fill:#005425"/><path d="M195.08,284.57a18.38,18.38,0,0,1,2.73-.21,16,16,0,0,1,2.58.21l2.33,8.4c.22.85,1,4,1.15,5.19h.22c.18-1.21.94-4.34,1.15-5.19l2.31-8.4a16.79,16.79,0,0,1,2.57-.21,18.77,18.77,0,0,1,2.76.21l1.61,20.63a9,9,0,0,1-2.06.21,11.45,11.45,0,0,1-1.79-.12l-.58-9.74c-.12-1.88-.24-4.67-.24-6.58h-.21l-3.55,13.19a13.6,13.6,0,0,1-4.16,0L198.35,289h-.21c0,1.91-.12,4.7-.24,6.58l-.58,9.74a11.84,11.84,0,0,1-1.82.12,9,9,0,0,1-2-.21Z" style="fill:#005425"/><path d="M222.14,300.56l-1.43,4.73a8,8,0,0,1-1.76.15,6.5,6.5,0,0,1-1.94-.27l-.15-.21,6.76-20.42a20.51,20.51,0,0,1,2.37-.15,15.37,15.37,0,0,1,2.34.18L235,305a5.27,5.27,0,0,1-2.34.51c-1.3,0-1.94-.45-2.42-2.18l-.85-2.76-1.49,0h-4.25C223.32,300.59,222.62,300.59,222.14,300.56Zm1-3.22,1.36,0h2.61c.28,0,.85,0,1.28,0l-.91-3.09c-.52-1.73-1.19-4.07-1.64-5.89h-.18c-.31,1.55-.94,3.73-1.34,5.13Z" style="fill:#005425"/><path d="M250.71,303.89c-1.33,1.1-3.79,1.52-5.43,1.52-2.55,0-4.52-.06-7.16-.12l-.21-.18V284.69l.21-.18c2.61-.09,4.61-.12,7.16-.12a9.56,9.56,0,0,1,5.43,1.51c2.79,2.25,3.31,5.46,3.31,9S253.53,301.65,250.71,303.89Zm-5.43-16.29c-1.15,0-2.09,0-3.3,0v14.65c1.21,0,2.15,0,3.3,0,4,0,4.55-4,4.55-7.32S249.26,287.6,245.28,287.6Z" style="fill:#005425"/><path d="M260.69,300.56l-1.42,4.73a8.08,8.08,0,0,1-1.76.15,6.4,6.4,0,0,1-1.94-.27l-.15-.21,6.76-20.42a20.51,20.51,0,0,1,2.37-.15,15.34,15.34,0,0,1,2.33.18L273.53,305a5.27,5.27,0,0,1-2.34.51c-1.3,0-1.94-.45-2.43-2.18l-.85-2.76-1.48,0h-4.25C261.88,300.59,261.18,300.59,260.69,300.56Zm1-3.22,1.37,0h2.61l1.27,0-.91-3.09c-.51-1.73-1.18-4.07-1.64-5.89h-.18c-.3,1.55-.94,3.73-1.33,5.13Z" style="fill:#005425"/><path d="M100,277.44a3.83,3.83,0,0,1,1.63,2.17l-5,3a2.3,2.3,0,0,1-1.12-1.36Z" style="fill:#005425"/><path d="M78.66,365.92H81c1,0,1.57.49,1.57,1.47v3.88a13.22,13.22,0,0,1-4,.6,4.64,4.64,0,0,1-1.88-.35,3.68,3.68,0,0,1-1.37-1,4.26,4.26,0,0,1-.83-1.63,7.71,7.71,0,0,1-.28-2.19,6.35,6.35,0,0,1,.39-2.33,4.85,4.85,0,0,1,1-1.66,4.2,4.2,0,0,1,1.51-1,4.94,4.94,0,0,1,1.79-.33,6.6,6.6,0,0,1,3.6,1.06,1.67,1.67,0,0,1-.11.48,4.16,4.16,0,0,1-.24.47,2.15,2.15,0,0,1-.32.41,2.69,2.69,0,0,1-.38.32A4.51,4.51,0,0,0,79,363.3q-2.4,0-2.4,3.36c0,2.23.82,3.35,2.46,3.35q.34,0,.66,0a6.17,6.17,0,0,0,.62-.09v-1c0-.23,0-.42,0-.59s0-.31,0-.43h-.73a1.24,1.24,0,0,1-.88-.24,1,1,0,0,1-.24-.76A3.11,3.11,0,0,1,78.66,365.92Z" style="fill:#87868a"/><path d="M90.45,370.93c-1-.87-1.57-2.31-1.57-4.32a7.76,7.76,0,0,1,.3-2.27,4.47,4.47,0,0,1,.87-1.65,3.72,3.72,0,0,1,1.38-1,5.09,5.09,0,0,1,3.66,0,3.59,3.59,0,0,1,1.39,1,4.63,4.63,0,0,1,.87,1.65,8.7,8.7,0,0,1,0,4.53,4.5,4.5,0,0,1-.87,1.64,3.57,3.57,0,0,1-1.39,1,4.66,4.66,0,0,1-1.83.34A4.27,4.27,0,0,1,90.45,370.93Zm1.2-2a1.56,1.56,0,0,0,1.61,1.15,1.53,1.53,0,0,0,1-.3,2.17,2.17,0,0,0,.59-.77,3.7,3.7,0,0,0,.28-1,8.71,8.71,0,0,0,.08-1.13c0-.35,0-.73,0-1.16a4.48,4.48,0,0,0-.21-1.18,2.3,2.3,0,0,0-.56-.93,1.55,1.55,0,0,0-1.12-.38,1.51,1.51,0,0,0-1.09.36,2.37,2.37,0,0,0-.56.9,4.55,4.55,0,0,0-.23,1.12c0,.4,0,.75,0,1.06a8.87,8.87,0,0,0,.07,1.21A5.63,5.63,0,0,0,91.65,368.9Z" style="fill:#87868a"/><path d="M107.77,369.67l1.93-8.1a3.76,3.76,0,0,1,.91-.09,3.84,3.84,0,0,1,1.21.16l.09.12-2.76,9.88a15.81,15.81,0,0,1-1.69.09,2.64,2.64,0,0,1-1.22-.21,1.43,1.43,0,0,1-.57-.85l-2.45-8.89a3.46,3.46,0,0,1,1.32-.34,1.27,1.27,0,0,1,.91.28,1.82,1.82,0,0,1,.46.88l1.13,4.21c.18.65.37,1.55.56,2.68C107.62,369.61,107.68,369.67,107.77,369.67Z" style="fill:#87868a"/><path d="M120.53,368.66v1.07h0l1.09,0H125a5.87,5.87,0,0,1,0,.84c-.11.76-.62,1.14-1.5,1.14h-3.92a1.35,1.35,0,0,1-1-.37,1.39,1.39,0,0,1-.36-1v-8.64l.1-.1h6.36a4.59,4.59,0,0,1,.09.93,3,3,0,0,1-.21,1.05h-4v2.09h3.25a3,3,0,0,1,.13.94,3.3,3.3,0,0,1-.13,1h-3.25Z" style="fill:#87868a"/><path d="M138.94,364.68a2.77,2.77,0,0,1-.15.92,3.42,3.42,0,0,1-.39.79,2.54,2.54,0,0,1-.58.6,2.77,2.77,0,0,1-.68.39,2,2,0,0,1,1.13,1.36l.45,1.25a2.11,2.11,0,0,0,.73,1.09,1.67,1.67,0,0,1-.66.5,2.37,2.37,0,0,1-1,.2,1.12,1.12,0,0,1-.83-.31,2.66,2.66,0,0,1-.54-1.05l-.54-1.55a1.53,1.53,0,0,0-.43-.68,1.22,1.22,0,0,0-.82-.23h-.6v3.68a6.51,6.51,0,0,1-1.18.09,6.32,6.32,0,0,1-1.17-.09v-10l.11-.1,2.16,0,1.37,0a5.25,5.25,0,0,1,1.48.2,3,3,0,0,1,1.13.6,2.63,2.63,0,0,1,.72,1A3.57,3.57,0,0,1,138.94,364.68Zm-4.88-1.44v2.9l1.13,0a1.61,1.61,0,0,0,.76-.18,1,1,0,0,0,.44-.44,1.87,1.87,0,0,0,.14-.81q0-1.44-1.38-1.44h-1.09Z" style="fill:#87868a"/><path d="M153.77,361.47l.1.1v10a6.26,6.26,0,0,1-1.39.13,9.88,9.88,0,0,1-1.42-.09l-2.32-5.28c-.27-.6-.55-1.29-.84-2.08l0,0q.18,2.15.18,4.41v2.93a5.93,5.93,0,0,1-1.11.09,5.56,5.56,0,0,1-1.09-.09v-10a5.77,5.77,0,0,1,1.35-.14,10,10,0,0,1,1.41.09l2.28,5.26c.41,1,.72,1.73.92,2.25l0,0c-.11-1.37-.17-2.82-.17-4.35v-1.8a1.57,1.57,0,0,1,.31-1.1,1.31,1.31,0,0,1,1-.33Z" style="fill:#87868a"/><path d="M162.15,370.93c-1.06-.87-1.58-2.31-1.58-4.32a7.76,7.76,0,0,1,.3-2.27,4.47,4.47,0,0,1,.87-1.65,3.72,3.72,0,0,1,1.38-1,5.09,5.09,0,0,1,3.66,0,3.59,3.59,0,0,1,1.39,1,4.63,4.63,0,0,1,.87,1.65,8.7,8.7,0,0,1,0,4.53,4.5,4.5,0,0,1-.87,1.64,3.57,3.57,0,0,1-1.39,1,4.63,4.63,0,0,1-1.83.34A4.22,4.22,0,0,1,162.15,370.93Zm1.19-2a1.56,1.56,0,0,0,1.61,1.15,1.53,1.53,0,0,0,1-.3,2.06,2.06,0,0,0,.59-.77,3.7,3.7,0,0,0,.29-1,8.68,8.68,0,0,0,.07-1.13c0-.35,0-.73,0-1.16a4.48,4.48,0,0,0-.21-1.18,2.3,2.3,0,0,0-.56-.93,1.84,1.84,0,0,0-2.21,0,2.37,2.37,0,0,0-.56.9,4.12,4.12,0,0,0-.22,1.12c0,.4-.05.75-.05,1.06a8.87,8.87,0,0,0,.07,1.21A5.63,5.63,0,0,0,163.34,368.9Z" style="fill:#87868a"/><path d="M186.68,363.58l0,1.15v.92h3.17a4,4,0,0,1,0,1.94H186.7v4.05a7.72,7.72,0,0,1-2.35,0v-10l.11-.09h6.31a4,4,0,0,1,.09.92,1,1,0,0,1-.31.82,1.4,1.4,0,0,1-1,.27Z" style="fill:#87868a"/><path d="M199.63,368.66l0,1.07h0l1.09,0h3.41a6.16,6.16,0,0,1,0,.84c-.12.76-.62,1.14-1.51,1.14h-3.92a1.28,1.28,0,0,1-1.36-1.38v-8.64l.11-.1h6.35a4.59,4.59,0,0,1,.09.93,3.18,3.18,0,0,1-.2,1.05h-4l0,1.06v1h3.24a3,3,0,0,1,.14.94,3.29,3.29,0,0,1-.14,1h-3.24Z" style="fill:#87868a"/><path d="M217.32,371a2.79,2.79,0,0,1-1.24.56,7.36,7.36,0,0,1-1.69.18h-1.32l-2.16-.05-.1-.1v-9.93l.1-.1,1.78,0,1.93,0a5,5,0,0,1,2.1.4,3.45,3.45,0,0,1,1.34,1.09,4.47,4.47,0,0,1,.71,1.63,9.26,9.26,0,0,1,.2,2,8.67,8.67,0,0,1-.33,2.55A3.7,3.7,0,0,1,217.32,371Zm-2.71-1.1c1.3,0,1.95-1.09,1.95-3.28s-.65-3.28-1.95-3.28h-.83l-.63,0v6.59h1.46Z" style="fill:#87868a"/><path d="M228,368.66l0,1.07h0l1.09,0h3.41a6.16,6.16,0,0,1,0,.84c-.12.76-.62,1.14-1.51,1.14H227a1.28,1.28,0,0,1-1.36-1.38v-8.64l.11-.1h6.35a4.59,4.59,0,0,1,.09.93,3,3,0,0,1-.21,1.05h-4l0,1.06v1h3.24a3,3,0,0,1,.14.94,3.29,3.29,0,0,1-.14,1H228Z" style="fill:#87868a"/><path d="M246.43,364.68a2.77,2.77,0,0,1-.15.92,3.42,3.42,0,0,1-.39.79,2.71,2.71,0,0,1-.57.6,2.65,2.65,0,0,1-.69.39,2,2,0,0,1,1.14,1.36l.44,1.25a2.12,2.12,0,0,0,.74,1.09,1.71,1.71,0,0,1-.67.5,2.37,2.37,0,0,1-1,.2,1.13,1.13,0,0,1-.83-.31,3,3,0,0,1-.54-1.05l-.53-1.55a1.64,1.64,0,0,0-.44-.68,1.2,1.2,0,0,0-.82-.23h-.6v3.68a6.44,6.44,0,0,1-1.18.09,6.13,6.13,0,0,1-1.16-.09v-10l.1-.1,2.16,0,1.38,0a5.17,5.17,0,0,1,1.47.2,3,3,0,0,1,1.13.6,2.63,2.63,0,0,1,.72,1A3.57,3.57,0,0,1,246.43,364.68Zm-4.88-1.44v2.9l1.14,0a1.59,1.59,0,0,0,.75-.18,1,1,0,0,0,.44-.44,1.71,1.71,0,0,0,.15-.81,1.25,1.25,0,0,0-1.39-1.44h-1.09Z" style="fill:#87868a"/><path d="M255.78,369.53h-.59l-.63,2.14a4.27,4.27,0,0,1-1,.09,3.32,3.32,0,0,1-1.15-.17l-.08-.11,3.25-9.9a8.74,8.74,0,0,1,1.34-.09,7.28,7.28,0,0,1,1.39.11l3.18,9.9a2.35,2.35,0,0,1-1.16.29,1.65,1.65,0,0,1-1.08-.27,2.17,2.17,0,0,1-.53-1l-.28-1h-2.67Zm-.05-1.85.59,0h1.61l-.25-.92c-.23-.82-.51-1.84-.81-3h-.09c-.08.43-.31,1.36-.71,2.82Z" style="fill:#87868a"/><path d="M271.52,369.65h2.56a5.82,5.82,0,0,1-.08,1,1.12,1.12,0,0,1-.47.72,1.61,1.61,0,0,1-1,.31h-3.34a1.38,1.38,0,0,1-1-.37,1.35,1.35,0,0,1-.37-1v-8.74l.1-.1h.87q1.38,0,1.38,1.5v6.74C270.56,369.67,271,369.65,271.52,369.65Z" style="fill:#87868a"/><rect x="73.55" y="132.11" width="200.53" height="141.93" style="fill:#fff"/><polygon points="73.55 132.09 73.55 209.26 153.35 144.88 274.08 198.13 274.08 132.09 73.55 132.09" style="fill:url(#linear-gradient)"/><path d="M73.55,209.26V264a192.22,192.22,0,0,1,18.29-13.49,74.1,74.1,0,0,1,117.67-47.36,306.86,306.86,0,0,1,64.57-5L153.35,144.88Z" style="fill:url(#linear-gradient-2)"/><g style="clip-path:url(#clip-path)"><ellipse cx="163.75" cy="261.19" rx="88.2" ry="92.32" style="fill:url(#radial-gradient)"/></g><path d="M165,188.26a74.12,74.12,0,0,0-73.15,62.23,320.93,320.93,0,0,1,117.67-47.36A73.7,73.7,0,0,0,165,188.26Z" style="fill:url(#linear-gradient-3)"/><path d="M209.51,203.13A320.93,320.93,0,0,0,91.84,250.49,192.22,192.22,0,0,0,73.55,264v10.09A142.76,142.76,0,0,1,90.9,262.4c23.26-13.71,69.62-35.13,137.1-39a383.68,383.68,0,0,1,46.08.13V198.13A306.86,306.86,0,0,0,209.51,203.13Z" style="fill:#fff"/><path d="M228,223.36c-67.48,3.91-113.84,25.33-137.1,39a142.76,142.76,0,0,0-17.35,11.67H274.08V223.49A383.68,383.68,0,0,0,228,223.36Z" style="fill:url(#linear-gradient-4)"/></svg>