<svg id="Layer_1" data-name="Layer 1" xmlns="http://www.w3.org/2000/svg" viewBox="0 0 526.75 171.29"><title>logo-mma-gov-branco</title><path d="M341.79,74.6c8.57,0,12.71,3.56,12.71,9.47A7.91,7.91,0,0,1,349,91.41a9.77,9.77,0,0,1,7.4,9.16c0,5.81-4.2,10.21-13.87,10.21-4.72,0-8.5-.11-12.87-.16l-.35-.37V75.12l.35-.37C333.93,74.7,338,74.6,341.79,74.6Zm-6.34,15h6.11c5.48,0,6.7-2.93,6.7-5.39s-1.1-5.39-6.58-5.39c-1.63,0-4.37,0-6.23,0Zm0,4.3v12.67c2.44,0,4.89,0,7,0,6.3,0,7.58-3.62,7.58-6.29s-1.69-6.33-7.92-6.33Z" style="fill:#fff"/><path d="M379.71,94.86a7.3,7.3,0,0,1,4.14,4.45l2.56,6.13a8.09,8.09,0,0,0,2.62,3.77,5.47,5.47,0,0,1-4.19,1.72c-2.33,0-3.15-1.15-4.08-3.4l-2.91-7.07c-1-2.41-2.28-4.29-5.89-4.29h-4.77v14.4a19.64,19.64,0,0,1-3.09.21,18.72,18.72,0,0,1-3-.21V75.12l.35-.37c4.37,0,8.56-.15,12.52-.15,8.1,0,13.23,3.77,13.23,10.73A9.8,9.8,0,0,1,379.71,94.86Zm-12.52-3.14c2.27,0,4.83-.11,6.46-.11,5.71,0,7.11-3.24,7.11-6.28S379.36,79,373.65,79c-1.69,0-4.48,0-6.46-.06Z" style="fill:#fff"/><path d="M401.2,101.88l-3.09,8.74a13.81,13.81,0,0,1-2.68.21,12.81,12.81,0,0,1-3-.37l-.17-.26L405.4,74.81A25.85,25.85,0,0,1,409,74.6a24.66,24.66,0,0,1,3.5.21L425.5,110.2a7.53,7.53,0,0,1-3.62.73c-1.92,0-2.91-.62-3.67-2.93l-2.15-6.12c-1,0-3,.05-3.5.05h-8C404.11,101.93,402.19,101.88,401.2,101.88Zm1.57-4.51c.94,0,2.51-.05,3-.05h5.82c.41,0,2,.05,2.92.05l-2.69-7.59c-1-3-2.27-6.7-3.08-9.48h-.29c-.59,2.36-1.64,5.66-2.28,7.6Z" style="fill:#fff"/><path d="M431,103a24.31,24.31,0,0,0,11.71,3.56c4.72,0,7.4-2,7.46-4.92,0-2.46-1.92-4.35-5.3-5.66L438,93.34c-4.9-1.88-8-4.61-8-9.06,0-5.7,5.36-10.15,13.17-10.15a31.13,31.13,0,0,1,12.35,2.72,6.32,6.32,0,0,1-2.27,4.35,26.91,26.91,0,0,0-10-2.47c-4.31,0-7,2.15-7,4.93,0,2.3,2,3.61,4.83,4.71L447.92,91c5,1.88,8.74,5.07,8.74,9.73,0,6-4.66,10.53-14.27,10.53a27.35,27.35,0,0,1-14-3.93A6.76,6.76,0,0,1,431,103Z" style="fill:#fff"/><path d="M463.9,74.81A19.48,19.48,0,0,1,467,74.6a20.14,20.14,0,0,1,3.09.21v35.76a20.14,20.14,0,0,1-3.09.21,19.48,19.48,0,0,1-3.09-.21Z" style="fill:#fff"/><path d="M503.17,105.75A15.91,15.91,0,0,1,503,108c-.35,1.78-1.81,2.67-4,2.67H483.77a3.28,3.28,0,0,1-3.61-3.46V74.91l.41-.31h2.33c2.56,0,3.49,1.1,3.49,3.56V106c1.81-.16,3.61-.21,5.19-.21Z" style="fill:#fff"/><path d="M335.29,62.79h-2.43v6a10.82,10.82,0,0,1-1.76.13,11.1,11.1,0,0,1-1.77-.13V50.89l.18-.16c2.11,0,3.88-.11,5.78-.11,3.64,0,6.25,2,6.25,6.1S338.93,62.79,335.29,62.79Zm-2.43-2.69c.87,0,1.82-.06,2.22-.06,2.35,0,2.82-1.92,2.82-3.32s-.47-3.33-2.82-3.33c-.66,0-1.42,0-2.22,0Z" style="fill:#fff"/><path d="M345.76,64.69l-1.23,4.11a6.7,6.7,0,0,1-1.54.13,5.46,5.46,0,0,1-1.68-.23l-.14-.19,5.89-17.76a19.8,19.8,0,0,1,2.06-.13,14,14,0,0,1,2,.16l5.78,17.76a4.57,4.57,0,0,1-2,.45c-1.13,0-1.68-.4-2.11-1.9l-.74-2.4-1.29,0h-3.69C346.79,64.71,346.19,64.71,345.76,64.69Zm.88-2.8,1.18,0h2.27l1.11,0-.79-2.69c-.45-1.51-1-3.54-1.43-5.12h-.15c-.27,1.35-.82,3.25-1.16,4.46Z" style="fill:#fff"/><path d="M360.59,55.64c0-.72,0-1.22,0-2h0l-1.58,0h-2.93a8.09,8.09,0,0,1-.13-1.48,8.39,8.39,0,0,1,.13-1.48h12.61a5.41,5.41,0,0,1,.19,1.38c0,1.16-.61,1.58-1.9,1.58h-1.24l-1.59,0h0c0,.74,0,1.24,0,2V68.78a12.25,12.25,0,0,1-3.56,0Z" style="fill:#fff"/><path d="M380.25,61a3.49,3.49,0,0,1,1.95,2.32l1,2.67a4.32,4.32,0,0,0,1.24,1.92A3,3,0,0,1,382.07,69c-1.29,0-1.74-.72-2.24-2.09l-1.11-3.14a2.4,2.4,0,0,0-2.46-1.9h-1.6v6.92a11.27,11.27,0,0,1-1.77.13,11,11,0,0,1-1.74-.13V50.89l.18-.16c2.11,0,4.12-.11,6-.11,3.66,0,6.2,1.82,6.2,5.57A5,5,0,0,1,380.25,61Zm-5.59-1.9c.92,0,1.92-.08,2.42-.08,2.3,0,2.83-1.4,2.83-2.85s-.53-2.85-2.83-2.85c-.63,0-1.61,0-2.42,0Z" style="fill:#fff"/><path d="M387.27,50.75a10.82,10.82,0,0,1,1.76-.13,11.1,11.1,0,0,1,1.77.13v18a11.1,11.1,0,0,1-1.77.13,10.82,10.82,0,0,1-1.76-.13Z" style="fill:#fff"/><path d="M398,64.69l-1.24,4.11a6.67,6.67,0,0,1-1.53.13,5.53,5.53,0,0,1-1.69-.23l-.13-.19,5.88-17.76a20,20,0,0,1,2.06-.13,13.77,13.77,0,0,1,2,.16l5.78,17.76a4.5,4.5,0,0,1-2,.45c-1.13,0-1.69-.4-2.11-1.9l-.74-2.4-1.29,0h-3.7C399.06,64.71,398.45,64.71,398,64.69Zm.87-2.8,1.19,0h2.27l1.11,0-.8-2.69c-.44-1.51-1-3.54-1.42-5.12h-.16c-.26,1.35-.82,3.25-1.16,4.46Z" style="fill:#fff"/><path d="M420.33,64.69l-1.24,4.11a6.67,6.67,0,0,1-1.53.13,5.48,5.48,0,0,1-1.69-.23l-.13-.19,5.88-17.76a19.8,19.8,0,0,1,2.06-.13,14,14,0,0,1,2,.16l5.78,17.76a4.53,4.53,0,0,1-2,.45c-1.14,0-1.69-.4-2.12-1.9l-.73-2.4-1.3,0h-3.69C421.36,64.71,420.75,64.71,420.33,64.69Zm.87-2.8,1.18,0h2.27l1.11,0L425,59.2c-.45-1.51-1-3.54-1.43-5.12h-.15c-.27,1.35-.82,3.25-1.16,4.46Z" style="fill:#fff"/><path d="M434.94,50.78a16.13,16.13,0,0,1,2.38-.18,13.94,13.94,0,0,1,2.24.18l2,7.31c.19.74.85,3.46,1,4.51h.19c.16-1.05.82-3.77,1-4.51l2-7.31A14.58,14.58,0,0,1,448,50.6a16.39,16.39,0,0,1,2.4.18l1.4,17.94a7.42,7.42,0,0,1-1.8.19,9.67,9.67,0,0,1-1.55-.11l-.5-8.47c-.11-1.63-.21-4.06-.21-5.72h-.19l-3.09,11.48a12.6,12.6,0,0,1-3.61,0l-3.09-11.48h-.18c0,1.66-.11,4.09-.21,5.72l-.51,8.47a10,10,0,0,1-1.58.11,7.33,7.33,0,0,1-1.77-.19Z" style="fill:#fff"/><path d="M458.48,64.69l-1.24,4.11a6.67,6.67,0,0,1-1.53.13A5.48,5.48,0,0,1,454,68.7l-.13-.19,5.88-17.76a19.8,19.8,0,0,1,2.06-.13,13.88,13.88,0,0,1,2,.16l5.78,17.76a4.53,4.53,0,0,1-2,.45c-1.14,0-1.69-.4-2.11-1.9l-.74-2.4-1.3,0h-3.69C459.51,64.71,458.9,64.71,458.48,64.69Zm.87-2.8,1.19,0h2.27c.23,0,.73,0,1.1,0l-.79-2.69c-.45-1.51-1-3.54-1.42-5.12h-.16c-.27,1.35-.82,3.25-1.16,4.46Z" style="fill:#fff"/><path d="M483.33,67.59a8.31,8.31,0,0,1-4.72,1.32c-2.22,0-3.93,0-6.23-.11l-.18-.16V50.89l.18-.16c2.27-.08,4-.11,6.23-.11a8.31,8.31,0,0,1,4.72,1.32c2.43,2,2.88,4.75,2.88,7.81S485.78,65.64,483.33,67.59Zm-4.72-14.17c-1,0-1.82,0-2.88,0V66.14c1.06,0,1.88,0,2.88,0,3.45,0,4-3.46,4-6.36S482.06,53.42,478.61,53.42Z" style="fill:#fff"/><path d="M492,64.69l-1.24,4.11a6.67,6.67,0,0,1-1.53.13,5.53,5.53,0,0,1-1.69-.23l-.13-.19,5.88-17.76a20,20,0,0,1,2.06-.13,13.77,13.77,0,0,1,2,.16l5.78,17.76a4.5,4.5,0,0,1-2,.45c-1.13,0-1.69-.4-2.11-1.9l-.74-2.4-1.29,0h-3.7C493,64.71,492.43,64.71,492,64.69Zm.87-2.8,1.19,0h2.27l1.11,0-.8-2.69c-.44-1.51-1-3.54-1.42-5.12h-.16c-.26,1.35-.82,3.25-1.16,4.46Z" style="fill:#fff"/><path d="M352.25,44.58a3.36,3.36,0,0,1,1.42,1.89l-4.37,2.6a2,2,0,0,1-1-1.19Z" style="fill:#fff"/><path d="M333.69,121.54l2,0c.91,0,1.36.43,1.36,1.29v3.37a11.39,11.39,0,0,1-3.47.52,4.17,4.17,0,0,1-1.64-.3,3.19,3.19,0,0,1-1.19-.89,4,4,0,0,1-.73-1.42,6.9,6.9,0,0,1-.24-1.9,5.43,5.43,0,0,1,.34-2,4.32,4.32,0,0,1,.91-1.45,3.78,3.78,0,0,1,1.31-.86,4.36,4.36,0,0,1,1.56-.29,5.76,5.76,0,0,1,3.12.92,1.27,1.27,0,0,1-.09.42,3.17,3.17,0,0,1-.21.41,1.93,1.93,0,0,1-.28.36,2.13,2.13,0,0,1-.33.28,3.84,3.84,0,0,0-2.15-.7c-1.39,0-2.09,1-2.09,2.93s.71,2.91,2.14,2.91a5.17,5.17,0,0,0,.57,0,4.86,4.86,0,0,0,.55-.07v-1.38c0-.14,0-.27,0-.37h-.64a1.06,1.06,0,0,1-.76-.21.9.9,0,0,1-.21-.66A2.58,2.58,0,0,1,333.69,121.54Z" style="fill:#fff"/><path d="M344,125.9a4.62,4.62,0,0,1-1.37-3.76,6.6,6.6,0,0,1,.26-2,4,4,0,0,1,.75-1.43,3,3,0,0,1,1.2-.87,4,4,0,0,1,1.59-.3,4.07,4.07,0,0,1,1.6.3,3.11,3.11,0,0,1,1.21.87,3.94,3.94,0,0,1,.75,1.44,7.32,7.32,0,0,1,0,3.94,3.89,3.89,0,0,1-.75,1.43,3.21,3.21,0,0,1-1.21.87,4.07,4.07,0,0,1-1.6.29A3.67,3.67,0,0,1,344,125.9Zm1-1.77a1.36,1.36,0,0,0,1.39,1,1.32,1.32,0,0,0,.86-.27,1.68,1.68,0,0,0,.51-.66,3.12,3.12,0,0,0,.25-.91,8.18,8.18,0,0,0,.06-1c0-.3,0-.64,0-1a4.26,4.26,0,0,0-.18-1,2,2,0,0,0-.49-.8,1.33,1.33,0,0,0-1-.33,1.3,1.3,0,0,0-.94.31,2,2,0,0,0-.49.78,3.87,3.87,0,0,0-.19,1c0,.35,0,.65,0,.92s0,.74,0,1.05A5,5,0,0,0,345,124.13Z" style="fill:#fff"/><path d="M359,124.79l1.68-7a3.54,3.54,0,0,1,.8-.07,3,3,0,0,1,1,.14l.08.1-2.4,8.59a14.48,14.48,0,0,1-1.47.08,2.15,2.15,0,0,1-1.06-.19,1.18,1.18,0,0,1-.5-.73l-2.13-7.74a3.26,3.26,0,0,1,1.14-.29,1.14,1.14,0,0,1,.8.24,1.68,1.68,0,0,1,.4.77l1,3.66c.15.57.31,1.35.48,2.33C358.88,124.74,358.93,124.79,359,124.79Z" style="fill:#fff"/><path d="M370.11,123.92v.93h0l.94,0h3a4.57,4.57,0,0,1,0,.73c-.1.66-.54,1-1.31,1h-3.41a1.18,1.18,0,0,1-.87-.32,1.21,1.21,0,0,1-.31-.87v-7.52l.09-.09h5.53a4.14,4.14,0,0,1,.07.81,2.56,2.56,0,0,1-.17.91H370.1v1.82h2.82a2.57,2.57,0,0,1,.12.82,2.86,2.86,0,0,1-.12.85h-2.82Z" style="fill:#fff"/><path d="M386.11,120.46a2.63,2.63,0,0,1-.12.8,2.88,2.88,0,0,1-.34.68,2.52,2.52,0,0,1-.5.53,2.42,2.42,0,0,1-.6.34,1.75,1.75,0,0,1,1,1.18l.38,1.09a1.9,1.9,0,0,0,.64.94,1.29,1.29,0,0,1-.57.43,2,2,0,0,1-.85.18.94.94,0,0,1-.72-.27,2.36,2.36,0,0,1-.47-.91l-.46-1.35a1.44,1.44,0,0,0-.38-.59,1.06,1.06,0,0,0-.71-.2h-.53v3.2a5.82,5.82,0,0,1-1,.08,5.57,5.57,0,0,1-1-.08v-8.69l.09-.09,1.88,0H383a4.27,4.27,0,0,1,1.28.17,2.56,2.56,0,0,1,1,.52,2.33,2.33,0,0,1,.63.87A3.09,3.09,0,0,1,386.11,120.46Zm-4.24-1.26v2.53l1,0a1.69,1.69,0,0,0,.66-.15,1,1,0,0,0,.38-.39,1.63,1.63,0,0,0,.12-.7c0-.84-.4-1.25-1.2-1.25h-.53Z" style="fill:#fff"/><path d="M399,117.66l.09.09v8.72a5.47,5.47,0,0,1-1.22.12,9,9,0,0,1-1.23-.08l-2-4.59c-.24-.52-.48-1.12-.73-1.81l0,0c.11,1.24.16,2.52.16,3.83v2.55a5.3,5.3,0,0,1-1,.08,5,5,0,0,1-.95-.08v-8.72a5,5,0,0,1,1.17-.11,9.08,9.08,0,0,1,1.23.07l2,4.58c.36.85.63,1.5.8,2l.05,0q-.15-1.77-.15-3.78v-1.56a1.43,1.43,0,0,1,.26-1,1.16,1.16,0,0,1,.88-.29Z" style="fill:#fff"/><path d="M406.3,125.9a4.65,4.65,0,0,1-1.37-3.76,6.94,6.94,0,0,1,.26-2,4,4,0,0,1,.76-1.43,3,3,0,0,1,1.2-.87,4.36,4.36,0,0,1,3.18,0,3.11,3.11,0,0,1,1.21.87,4.11,4.11,0,0,1,.76,1.44,7.59,7.59,0,0,1,0,3.94,4.06,4.06,0,0,1-.76,1.43,3.21,3.21,0,0,1-1.21.87,4,4,0,0,1-1.59.29A3.68,3.68,0,0,1,406.3,125.9Zm1-1.77a1.37,1.37,0,0,0,1.4,1,1.29,1.29,0,0,0,.85-.27,1.68,1.68,0,0,0,.51-.66,2.83,2.83,0,0,0,.25-.91,6.55,6.55,0,0,0,.07-1c0-.3,0-.64,0-1a4.8,4.8,0,0,0-.19-1,1.86,1.86,0,0,0-.49-.8,1.31,1.31,0,0,0-1-.33,1.29,1.29,0,0,0-.94.31,1.86,1.86,0,0,0-.49.78,3.48,3.48,0,0,0-.2,1c0,.35,0,.65,0,.92a8.27,8.27,0,0,0,.06,1.05A5.82,5.82,0,0,0,407.34,124.13Z" style="fill:#fff"/><path d="M427.64,119.5v1.81h2.76a3.12,3.12,0,0,1,.1.84,3.22,3.22,0,0,1-.1.84h-2.76v3.52a6.48,6.48,0,0,1-2,0v-8.68l.08-.08h5.49a3.08,3.08,0,0,1,.08.8,1,1,0,0,1-.26.72,1.28,1.28,0,0,1-.83.23Z" style="fill:#fff"/><path d="M438.9,123.92v.93h0l.94,0h3a4.57,4.57,0,0,1,0,.73c-.1.66-.54,1-1.31,1H438a1.15,1.15,0,0,1-.86-.32,1.18,1.18,0,0,1-.32-.87v-7.52l.09-.09h5.53a4.12,4.12,0,0,1,.08.81,2.58,2.58,0,0,1-.18.91h-3.49v1.82h2.82a2.57,2.57,0,0,1,.12.82,2.86,2.86,0,0,1-.12.85H438.9Z" style="fill:#fff"/><path d="M454.29,126a2.7,2.7,0,0,1-1.08.49,6.65,6.65,0,0,1-1.47.15h-1.15l-1.88,0-.09-.09v-8.63l.09-.09,1.55,0h1.68a4.22,4.22,0,0,1,1.82.34,3,3,0,0,1,1.17,1,3.81,3.81,0,0,1,.62,1.42,8,8,0,0,1,.18,1.75,7.36,7.36,0,0,1-.3,2.22A3.16,3.16,0,0,1,454.29,126Zm-2.36-1c1.13,0,1.69-.95,1.69-2.85s-.56-2.86-1.69-2.86h-1.27V125h1.27Z" style="fill:#fff"/><path d="M463.6,123.92v.93h0l.94,0h3a4.57,4.57,0,0,1,0,.73c-.1.66-.54,1-1.31,1h-3.41a1.15,1.15,0,0,1-.86-.32,1.18,1.18,0,0,1-.32-.87v-7.52l.09-.09h5.53a4.12,4.12,0,0,1,.08.81,2.58,2.58,0,0,1-.18.91h-3.49v1.82h2.82a2.57,2.57,0,0,1,.12.82,2.86,2.86,0,0,1-.12.85H463.6Z" style="fill:#fff"/><path d="M479.61,120.46a2.63,2.63,0,0,1-.13.8,2.88,2.88,0,0,1-.34.68,2.52,2.52,0,0,1-.5.53,2.25,2.25,0,0,1-.6.34,1.7,1.7,0,0,1,1,1.18l.38,1.09a1.85,1.85,0,0,0,.65.94,1.38,1.38,0,0,1-.58.43,2,2,0,0,1-.85.18.94.94,0,0,1-.72-.27,2.36,2.36,0,0,1-.47-.91L477,124.1a1.44,1.44,0,0,0-.38-.59,1.06,1.06,0,0,0-.71-.2h-.53v3.2a6.54,6.54,0,0,1-2,0v-8.69l.09-.09,1.88,0h1.2a4.27,4.27,0,0,1,1.28.17,2.56,2.56,0,0,1,1,.52,2.33,2.33,0,0,1,.63.87A3.09,3.09,0,0,1,479.61,120.46Zm-4.25-1.26v2.53l1,0a1.69,1.69,0,0,0,.66-.15,1,1,0,0,0,.38-.39,1.61,1.61,0,0,0,.13-.7,1.09,1.09,0,0,0-1.21-1.25h-.53Z" style="fill:#fff"/><path d="M487.74,124.68h-.52l-.55,1.85a3.24,3.24,0,0,1-.86.08,3.08,3.08,0,0,1-1-.14l-.06-.1,2.82-8.61a8,8,0,0,1,1.17-.07,6.37,6.37,0,0,1,1.2.09l2.77,8.61a2,2,0,0,1-1,.25,1.5,1.5,0,0,1-.94-.23,1.91,1.91,0,0,1-.46-.89l-.24-.84h-2.32Zm0-1.62h1.91l-.22-.79c-.2-.72-.44-1.6-.7-2.64h-.08c-.07.36-.27,1.18-.62,2.45Z" style="fill:#fff"/><path d="M501.43,124.78h2.22a5.52,5.52,0,0,1-.06.88,1,1,0,0,1-.41.63,1.51,1.51,0,0,1-.91.26h-2.9a1.18,1.18,0,0,1-.87-.32,1.14,1.14,0,0,1-.32-.87v-7.61l.09-.09H499c.8,0,1.2.44,1.2,1.31v5.86C500.59,124.8,501,124.78,501.43,124.78Z" style="fill:#fff"/><path d="M220.83,111.66a186.84,186.84,0,0,1,57.76-23.4,37.5,37.5,0,0,0-57.76,23.4Z" style="fill:none"/><path d="M291.6,98.43c-36.18,2.1-61,13.56-73.5,20.9a78.85,78.85,0,0,0-9.2,6.16v.07H316.23V98.5A204.84,204.84,0,0,0,291.6,98.43Z" style="fill:#fff"/><path d="M214.35,86.49h0l-5.45,4.4v29.29a96,96,0,0,1,8-6,40.89,40.89,0,0,1,66.19-26.78,164.64,164.64,0,0,1,28.43-2.5c1.54,0,3.09,0,4.66.07L251.61,56.42,228.89,74.76Z" style="fill:#fff"/><path d="M252.6,52.84l63.63,28.42V49.58H208.9V86.33l41.39-33.2A2.22,2.22,0,0,1,252.6,52.84Z" style="fill:#fff"/><path d="M220.87,111.48a172.66,172.66,0,0,1,57.67-23.25,37.5,37.5,0,0,0-57.67,23.25Z" style="fill:#fff"/><path d="M36.8,104.42l1.17-15a6.89,6.89,0,0,1,1.14-.07,6.14,6.14,0,0,1,1.1.07l2.51,7.72c.14.37.31,1,.53,1.76s.34,1.29.37,1.45h.11a26.28,26.28,0,0,1,.9-3.21l2.53-7.72a8.92,8.92,0,0,1,2.23,0l1.16,15a3.18,3.18,0,0,1-.82.11,5.13,5.13,0,0,1-.81-.06l-.63-9.11c0-.66-.11-2-.18-4.16H48l-3.48,10.89a5.34,5.34,0,0,1-.88.09,4,4,0,0,1-.79-.09L39.37,91.2h-.1c0,.37-.05,1.06-.08,2.08s-.07,1.71-.1,2.08l-.62,9.11a5.63,5.63,0,0,1-.84.06A3.09,3.09,0,0,1,36.8,104.42Z" style="fill:#fff"/><path d="M53.81,104.44v-15a3.48,3.48,0,0,1,.8-.07,4.51,4.51,0,0,1,.87.07v15a4.51,4.51,0,0,1-.87.07A3.48,3.48,0,0,1,53.81,104.44Z" style="fill:#fff"/><path d="M69.36,89.35l.13.11v15a6,6,0,0,1-1,.07,6.56,6.56,0,0,1-1.06-.07l-5.34-10c-.44-.82-.94-1.84-1.5-3H60.5c.08,2.73.13,4.31.13,4.75v8.25a5.13,5.13,0,0,1-.82.07,3.93,3.93,0,0,1-.74-.07v-15a5.5,5.5,0,0,1,1-.07,6.3,6.3,0,0,1,1,.07l5.35,10c.35.63.86,1.67,1.54,3.1h.06q-.15-2.81-.15-5v-7a1.51,1.51,0,0,1,.18-.85.79.79,0,0,1,.7-.25Z" style="fill:#fff"/><path d="M73.06,104.44v-15a3.48,3.48,0,0,1,.8-.07,4.51,4.51,0,0,1,.87.07v15a4.51,4.51,0,0,1-.87.07A3.48,3.48,0,0,1,73.06,104.44Z" style="fill:#fff"/><path d="M77,103.06a1.79,1.79,0,0,1,.77-1.34,7.83,7.83,0,0,0,4.39,1.51,4.09,4.09,0,0,0,2.47-.66,2.11,2.11,0,0,0,.9-1.8c0-1.13-.78-2-2.33-2.73l-2.57-1.12q-3-1.28-3-3.7A3.61,3.61,0,0,1,78,91.64a3.88,3.88,0,0,1,1-1.3,4.7,4.7,0,0,1,1.5-.87,5.8,5.8,0,0,1,2-.32,10.15,10.15,0,0,1,4.36,1.06,1.75,1.75,0,0,1-.68,1.41,10.11,10.11,0,0,0-2-.79,6.35,6.35,0,0,0-1.69-.25,3.78,3.78,0,0,0-1.26.2,3.31,3.31,0,0,0-1,.52,2.26,2.26,0,0,0-.63.75,2.14,2.14,0,0,0,.34,2.39,5.09,5.09,0,0,0,1.58,1L84,96.48q3.29,1.42,3.28,4a3.92,3.92,0,0,1-1.3,3.08,5.88,5.88,0,0,1-4,1.17A8.22,8.22,0,0,1,77,103.06Z" style="fill:#fff"/><path d="M94.84,90.87l-1.21,0v13.59a4,4,0,0,1-.83.07,4.19,4.19,0,0,1-.84-.07V90.85l-1.19,0H88a4.56,4.56,0,0,1-.06-.72,4.88,4.88,0,0,1,.06-.73h9.66a1.62,1.62,0,0,1,.13.7c0,.5-.34.75-1,.75Z" style="fill:#fff"/><path d="M101.06,102.17l0,.84c.5,0,.95,0,1.36,0h6a4.16,4.16,0,0,1,0,.7,1,1,0,0,1-1.08.77h-6.93a.87.87,0,0,1-.69-.29,1.21,1.21,0,0,1-.26-.81V89.55l.14-.13h8.49a4.25,4.25,0,0,1,0,.69,2.49,2.49,0,0,1-.11.76H101l0,1.36v3.9l1.32,0h4.56a4.66,4.66,0,0,1,.06.72,4.44,4.44,0,0,1-.06.71h-4.56q-.82,0-1.32,0Zm.84-14.69L106.1,85a2.06,2.06,0,0,1,.84,1.47l-4.51,1.9A1.3,1.3,0,0,1,101.9,87.48Z" style="fill:#fff"/><path d="M111.09,89.42l4.45-.07a5,5,0,0,1,3.52,1.15,4.14,4.14,0,0,1,1.25,3.21,4.25,4.25,0,0,1-.77,2.54,3.92,3.92,0,0,1-2.11,1.47,2.66,2.66,0,0,1,1.47,1.78l1.15,3a6,6,0,0,0,.48,1,2.59,2.59,0,0,0,.46.56,1.27,1.27,0,0,1-1.16.54,1,1,0,0,1-.72-.24,2.37,2.37,0,0,1-.49-.85l-1.28-3.35a4.22,4.22,0,0,0-.89-1.51,2.09,2.09,0,0,0-1.53-.51h-2.29v6.33a4.57,4.57,0,0,1-.85.07,3.79,3.79,0,0,1-.82-.07V89.55Zm1.54,1.3v6l1.14,0h1.59a4.14,4.14,0,0,0,1.53-.25,2.65,2.65,0,0,0,1-.64,2.25,2.25,0,0,0,.53-.94,4.24,4.24,0,0,0,.15-1.14,4.41,4.41,0,0,0-.15-1.17,2.25,2.25,0,0,0-.53-.94,2.45,2.45,0,0,0-1-.63,4.45,4.45,0,0,0-1.57-.23h-1.59Z" style="fill:#fff"/><path d="M123.22,104.44v-15a3.48,3.48,0,0,1,.8-.07,4.51,4.51,0,0,1,.87.07v15a4.51,4.51,0,0,1-.87.07A3.48,3.48,0,0,1,123.22,104.44Z" style="fill:#fff"/><path d="M129.88,103.43q-2.32-2.07-2.33-6.49a12.15,12.15,0,0,1,.39-3.18,7.15,7.15,0,0,1,1.13-2.46,5.27,5.27,0,0,1,1.86-1.59,5.59,5.59,0,0,1,2.54-.56,5.32,5.32,0,0,1,2.64.63A5.48,5.48,0,0,1,138,91.47,7.76,7.76,0,0,1,139.06,94a12.46,12.46,0,0,1,.35,3,12.15,12.15,0,0,1-.39,3.18,7.15,7.15,0,0,1-1.13,2.46,5.27,5.27,0,0,1-1.86,1.59,5.67,5.67,0,0,1-2.56.56A5.16,5.16,0,0,1,129.88,103.43Zm-.37-8.74a7.73,7.73,0,0,0-.15,1.09q0,.57,0,1.14a14.51,14.51,0,0,0,.16,2.11,7.39,7.39,0,0,0,.59,2.07,4.16,4.16,0,0,0,1.25,1.59,3.42,3.42,0,0,0,2.14.63A3.56,3.56,0,0,0,135,103a3.52,3.52,0,0,0,1.12-.8,4.1,4.1,0,0,0,.74-1.16,8.88,8.88,0,0,0,.44-1.38,12.14,12.14,0,0,0,.23-1.43q.06-.7.06-1.32a16,16,0,0,0-.15-2.1,6.92,6.92,0,0,0-.61-2.07,4.23,4.23,0,0,0-1.25-1.58,3.34,3.34,0,0,0-2.12-.63,3.71,3.71,0,0,0-1.7.36,3.47,3.47,0,0,0-1.15.95,4.58,4.58,0,0,0-.71,1.33A12.4,12.4,0,0,0,129.51,94.69Z" style="fill:#fff"/><path d="M154.26,103.41a3.43,3.43,0,0,1-.75.47,5.52,5.52,0,0,1-.94.35,7.22,7.22,0,0,1-1,.22,4.92,4.92,0,0,1-.87.08l-1.55,0-3.07-.07-.14-.13V89.55l.14-.13c1.27,0,2.76-.07,4.46-.07a6.12,6.12,0,0,1,2.86.6,4.87,4.87,0,0,1,1.84,1.61,6.66,6.66,0,0,1,1,2.42,14.93,14.93,0,0,1,.28,3q0,1.11-.09,2a8.27,8.27,0,0,1-.37,1.73,6.34,6.34,0,0,1-.7,1.46A5.74,5.74,0,0,1,154.26,103.41Zm-6.62-.29,2.9,0a3.94,3.94,0,0,0,2.07-.49,3.76,3.76,0,0,0,1.29-1.31,5.75,5.75,0,0,0,.65-1.84,10.65,10.65,0,0,0,.19-2,22.57,22.57,0,0,0-.15-2.71,5.93,5.93,0,0,0-.64-2.13,3.54,3.54,0,0,0-1.34-1.4,4.07,4.07,0,0,0-2.07-.49l-2.9,0Z" style="fill:#fff"/><path d="M160.55,103.43q-2.33-2.07-2.33-6.49a12.6,12.6,0,0,1,.38-3.18,7.35,7.35,0,0,1,1.14-2.46,5.27,5.27,0,0,1,1.86-1.59,5.59,5.59,0,0,1,2.54-.56,5.32,5.32,0,0,1,2.64.63,5.67,5.67,0,0,1,1.86,1.69A7.76,7.76,0,0,1,169.73,94a12.46,12.46,0,0,1,.35,3,12.15,12.15,0,0,1-.39,3.18,7.34,7.34,0,0,1-1.13,2.46,5.27,5.27,0,0,1-1.86,1.59,5.67,5.67,0,0,1-2.56.56A5.14,5.14,0,0,1,160.55,103.43Zm-.37-8.74a7.73,7.73,0,0,0-.15,1.09q0,.57,0,1.14a16,16,0,0,0,.15,2.11,7.75,7.75,0,0,0,.6,2.07,4.16,4.16,0,0,0,1.25,1.59,3.42,3.42,0,0,0,2.14.63,3.56,3.56,0,0,0,1.54-.31,3.52,3.52,0,0,0,1.12-.8,3.87,3.87,0,0,0,.73-1.16,8,8,0,0,0,.45-1.38,12.14,12.14,0,0,0,.23-1.43q.06-.7.06-1.32a16,16,0,0,0-.15-2.1,6.92,6.92,0,0,0-.61-2.07,4.23,4.23,0,0,0-1.25-1.58,3.34,3.34,0,0,0-2.12-.63,3.71,3.71,0,0,0-1.7.36,3.47,3.47,0,0,0-1.15.95,4.58,4.58,0,0,0-.71,1.33A12.4,12.4,0,0,0,160.18,94.69Z" style="fill:#fff"/><path d="M23.09,126.29l1.17-15a11.88,11.88,0,0,1,1.95-.15,11.09,11.09,0,0,1,1.9.15l1.69,6.09c.46,1.82.74,3.08.84,3.77h.15c.11-.69.39-2,.84-3.77l1.67-6.09a12.11,12.11,0,0,1,1.94-.15,12,12,0,0,1,1.93.15l1.17,15a5.89,5.89,0,0,1-1.42.15,9,9,0,0,1-1.38-.08l-.41-7.07q-.18-2.72-.18-4.77H34.8l-2.58,9.57a10.38,10.38,0,0,1-1.5.11,10.52,10.52,0,0,1-1.51-.11l-2.57-9.57h-.16c0,1.8-.09,3.4-.18,4.77l-.41,7.07a9,9,0,0,1-1.38.08A5.89,5.89,0,0,1,23.09,126.29Z" style="fill:#fff"/><path d="M43.62,122.57l0,1.37,1.54,0h5.39a7.06,7.06,0,0,1-.07,1.08,1.65,1.65,0,0,1-1.89,1.41H42.39a1.67,1.67,0,0,1-1.25-.47,1.81,1.81,0,0,1-.45-1.29V111.46l.16-.15H50a6.31,6.31,0,0,1,.11,1.18,3.9,3.9,0,0,1-.24,1.3H43.6l0,1.52v2.27l1.43,0h3.72a3.88,3.88,0,0,1,.17,1.21,3.92,3.92,0,0,1-.17,1.21H43.62Z" style="fill:#fff"/><path d="M52.46,126.34v-15a8.07,8.07,0,0,1,1.45-.11,9.21,9.21,0,0,1,1.52.11v15a9.33,9.33,0,0,1-1.52.1A8.2,8.2,0,0,1,52.46,126.34Z" style="fill:#fff"/><path d="M59.72,125.3c-1.57-1.35-2.35-3.5-2.35-6.47a11.62,11.62,0,0,1,.43-3.32,6.75,6.75,0,0,1,1.25-2.45,5.44,5.44,0,0,1,2-1.53,6.6,6.6,0,0,1,2.7-.53,6.46,6.46,0,0,1,2.67.53,5.25,5.25,0,0,1,2,1.53,7,7,0,0,1,1.25,2.46,12,12,0,0,1,.42,3.31,11.81,11.81,0,0,1-.42,3.3,7,7,0,0,1-1.25,2.46,5.32,5.32,0,0,1-2,1.52,6.3,6.3,0,0,1-2.67.53A6.11,6.11,0,0,1,59.72,125.3ZM67,118.83q0-5.52-3.25-5.52t-3.26,5.52q0,5.51,3.26,5.5T67,118.83Z" style="fill:#fff"/><path d="M83.51,122.92l-1.08,0H79.35l-1.08,0-1,3.44a6.08,6.08,0,0,1-1.3.11,4,4,0,0,1-1.38-.2l-.11-.16,4.91-14.8a13.73,13.73,0,0,1,1.76-.11,8.9,8.9,0,0,1,1.65.13l4.81,14.81a2.93,2.93,0,0,1-1.52.37,2,2,0,0,1-1.28-.33,2.62,2.62,0,0,1-.65-1.25ZM79,120.59l1,0h1.9l.92,0-.66-2.24c-.5-1.67-.89-3.1-1.19-4.27h-.13c-.13.63-.45,1.87-1,3.72Z" style="fill:#fff"/><path d="M88.43,126.29l1.17-15a11.88,11.88,0,0,1,2-.15,11.09,11.09,0,0,1,1.9.15l1.69,6.09c.46,1.82.74,3.08.84,3.77h.15c.11-.69.39-2,.84-3.77l1.67-6.09a12.11,12.11,0,0,1,1.94-.15,12,12,0,0,1,1.93.15l1.17,15a5.89,5.89,0,0,1-1.42.15,9,9,0,0,1-1.38-.08l-.41-7.07q-.18-2.72-.18-4.77h-.15l-2.58,9.57a10.38,10.38,0,0,1-1.5.11,10.52,10.52,0,0,1-1.51-.11L92,114.52h-.16c0,1.8-.09,3.4-.18,4.77l-.41,7.07a9,9,0,0,1-1.38.08A5.89,5.89,0,0,1,88.43,126.29Z" style="fill:#fff"/><path d="M106.21,111.29l2.91-.07,1.91,0a5.85,5.85,0,0,1,3.69,1,3.53,3.53,0,0,1,1.3,3,3.27,3.27,0,0,1-.55,1.85,3.16,3.16,0,0,1-1.47,1.21,3.88,3.88,0,0,1,1,.54,3.68,3.68,0,0,1,.88.88,3.9,3.9,0,0,1,.58,1.13,4.36,4.36,0,0,1-1.17,4.52,6.13,6.13,0,0,1-4,1.13c-.55,0-1.24,0-2.09,0l-3.06-.06-.16-.13V111.42Zm2.77,2v4h1.91c1.47,0,2.2-.67,2.2-2a2.08,2.08,0,0,0-.31-1.25,1.6,1.6,0,0,0-.9-.57,4.85,4.85,0,0,0-1.33-.14C110.05,113.37,109.52,113.36,109,113.33Zm2.17,6.21H109v4.79c.28,0,.6,0,1,0s.71,0,1.06,0a8.36,8.36,0,0,0,1-.1,1.91,1.91,0,0,0,.88-.36,2,2,0,0,0,.62-.75,2.58,2.58,0,0,0,.23-1.19,2.68,2.68,0,0,0-.15-.89,2.15,2.15,0,0,0-.47-.76,2.24,2.24,0,0,0-.8-.53A3.25,3.25,0,0,0,111.15,119.54Z" style="fill:#fff"/><path d="M118.68,126.34v-15a8.11,8.11,0,0,1,1.46-.11,9.16,9.16,0,0,1,1.51.11v15a9.28,9.28,0,0,1-1.51.1A8.25,8.25,0,0,1,118.68,126.34Z" style="fill:#fff"/><path d="M127.4,122.57l0,1.37,1.54,0h5.39a7.32,7.32,0,0,1-.06,1.08,1.65,1.65,0,0,1-1.89,1.41h-6.19a1.66,1.66,0,0,1-1.24-.47,1.81,1.81,0,0,1-.45-1.29V111.46l.15-.15h9.18a6.31,6.31,0,0,1,.11,1.18,3.9,3.9,0,0,1-.24,1.3h-6.3l0,1.52v2.27l1.43,0h3.71a3.59,3.59,0,0,1,.18,1.21,3.63,3.63,0,0,1-.18,1.21H127.4Z" style="fill:#fff"/><path d="M147.5,111.18l.16.15v15a8.25,8.25,0,0,1-1.72.15,13.51,13.51,0,0,1-1.8-.1l-4-8.52c-.59-1.29-1-2.32-1.32-3.08l-.09,0q.24,3.1.24,6v5.59a8.36,8.36,0,0,1-1.4.1,7.67,7.67,0,0,1-1.35-.1v-15a7.56,7.56,0,0,1,1.67-.15,13.51,13.51,0,0,1,1.81.11l4,8.51,1.43,3.26.07,0q-.22-3.19-.22-6v-4a2.06,2.06,0,0,1,.37-1.4,1.62,1.62,0,0,1,1.26-.42Z" style="fill:#fff"/><path d="M155.64,115.38v11a9.22,9.22,0,0,1-1.48.1,9.36,9.36,0,0,1-1.49-.1v-11l0-1.63-1.34,0h-2.44a6.46,6.46,0,0,1-.11-1.23,6.62,6.62,0,0,1,.11-1.23h10.52a4.59,4.59,0,0,1,.15,1.2,1.18,1.18,0,0,1-.37.95,1.89,1.89,0,0,1-1.21.31h-1l-1.34,0Z" style="fill:#fff"/><path d="M163.52,122.57l0,1.37,1.54,0h5.39a7.06,7.06,0,0,1-.07,1.08,1.65,1.65,0,0,1-1.89,1.41h-6.18a1.67,1.67,0,0,1-1.25-.47,1.81,1.81,0,0,1-.45-1.29V111.46l.16-.15h9.17a6.31,6.31,0,0,1,.11,1.18,3.9,3.9,0,0,1-.24,1.3H163.5l0,1.52v2.27l1.43,0h3.72a3.88,3.88,0,0,1,.17,1.21,3.92,3.92,0,0,1-.17,1.21h-5.15Z" style="fill:#fff"/></svg>