<svg id="Layer_1" data-name="Layer 1" xmlns="http://www.w3.org/2000/svg" viewBox="0 0 353 417.93"><title>logo-mma-gov-vertical-branco</title><path d="M91.93,313.11c9.65,0,14.32,4,14.32,10.69a8.89,8.89,0,0,1-6.18,8.26c4.47,1.18,8.34,5.26,8.34,10.33,0,6.56-4.73,11.52-15.63,11.52-5.32,0-9.59-.12-14.52-.18l-.39-.41V313.7l.39-.41C83.06,313.23,87.59,313.11,91.93,313.11Zm-7.16,16.95h6.89c6.18,0,7.56-3.31,7.56-6.09s-1.25-6.08-7.43-6.08c-1.83,0-4.92,0-7-.06Zm0,4.84v14.28c2.75,0,5.51-.06,7.94-.06,7.1,0,8.54-4.07,8.54-7.08s-1.9-7.14-8.93-7.14Z" style="fill:#fff"/><path d="M134.68,336a8.2,8.2,0,0,1,4.66,5l2.89,6.9a9.15,9.15,0,0,0,3,4.26,6.23,6.23,0,0,1-4.73,1.94c-2.63,0-3.55-1.3-4.6-3.83l-3.29-8c-1.11-2.72-2.56-4.84-6.63-4.84h-5.39v16.23a22,22,0,0,1-3.48.24,21.15,21.15,0,0,1-3.41-.24v-40l.39-.41c4.93-.06,9.66-.18,14.12-.18,9.13,0,14.91,4.25,14.91,12.1A11,11,0,0,1,134.68,336Zm-14.13-3.54c2.56-.06,5.46-.12,7.3-.12,6.43,0,8-3.66,8-7.09,0-3.6-1.58-7.14-8-7.14-1.91,0-5.06,0-7.3-.06Z" style="fill:#fff"/><path d="M158.91,343.87l-3.49,9.86a15.67,15.67,0,0,1-3,.24,14.12,14.12,0,0,1-3.41-.42l-.2-.29,14.85-39.91a29.24,29.24,0,0,1,4-.24,27.62,27.62,0,0,1,3.94.24l14.72,39.91a8.52,8.52,0,0,1-4.07.82c-2.17,0-3.29-.71-4.14-3.3l-2.43-6.91c-1.12,0-3.42.06-3.95.06h-9C162.19,343.93,160,343.87,158.91,343.87Zm1.77-5.08c1,0,2.83-.06,3.35-.06h6.57c.46,0,2.23.06,3.28.06l-3-8.56c-1.18-3.42-2.56-7.55-3.48-10.68h-.33c-.65,2.65-1.84,6.37-2.56,8.56Z" style="fill:#fff"/><path d="M192.53,345.17a27.41,27.41,0,0,0,13.2,4c5.33,0,8.35-2.3,8.41-5.55,0-2.77-2.16-4.9-6-6.37l-7.76-3c-5.51-2.13-9-5.2-9-10.22,0-6.43,6-11.45,14.84-11.45a35.22,35.22,0,0,1,13.93,3.07,7.1,7.1,0,0,1-2.57,4.9,30.57,30.57,0,0,0-11.23-2.77c-4.86,0-7.88,2.42-7.88,5.55,0,2.59,2.23,4.07,5.45,5.31l7.62,2.95c5.65,2.12,9.85,5.73,9.85,11,0,6.79-5.25,11.87-16.09,11.87A30.82,30.82,0,0,1,189.58,350,7.57,7.57,0,0,1,192.53,345.17Z" style="fill:#fff"/><path d="M229.6,313.35a22,22,0,0,1,3.48-.24,22.62,22.62,0,0,1,3.48.24v40.32a22.62,22.62,0,0,1-3.48.24,22,22,0,0,1-3.48-.24Z" style="fill:#fff"/><path d="M273.88,348.24a17.2,17.2,0,0,1-.2,2.48c-.39,2-2,3-4.53,3H252c-2.36,0-4.07-1.36-4.07-3.9V313.47l.46-.36H251c2.89,0,3.94,1.24,3.94,4v31.34c2-.17,4.07-.23,5.84-.23Z" style="fill:#fff"/><path d="M84.59,299.8H81.86v6.75a13.34,13.34,0,0,1-4,0V286.38l.21-.18c2.38-.06,4.37-.12,6.51-.12,4.11,0,7,2.23,7,6.87S88.7,299.8,84.59,299.8Zm-2.73-3c1,0,2-.06,2.49-.06,2.65,0,3.19-2.17,3.19-3.75s-.54-3.74-3.19-3.74c-.74,0-1.6,0-2.49,0Z" style="fill:#fff"/><path d="M96.4,301.94,95,306.58a7.65,7.65,0,0,1-1.72.15,6.25,6.25,0,0,1-1.91-.27l-.14-.21,6.63-20a19.65,19.65,0,0,1,2.32-.15,14.72,14.72,0,0,1,2.29.18l6.52,20a5.09,5.09,0,0,1-2.3.51c-1.27,0-1.9-.45-2.37-2.14l-.84-2.71L102,302H97.86C97.56,302,96.88,302,96.4,301.94Zm1-3.15,1.34,0h2.56c.27,0,.83,0,1.25,0l-.89-3c-.51-1.7-1.16-4-1.61-5.77h-.18c-.29,1.52-.92,3.66-1.31,5Z" style="fill:#fff"/><path d="M113.12,291.74c0-.81,0-1.37,0-2.21h0l-1.78,0H108a8.51,8.51,0,0,1-.15-1.66,8.81,8.81,0,0,1,.15-1.67h14.22a6.24,6.24,0,0,1,.21,1.55c0,1.31-.68,1.78-2.14,1.78h-1.4l-1.78,0h0c0,.84,0,1.4,0,2.21v14.81a12.22,12.22,0,0,1-2,.15,12,12,0,0,1-2-.15Z" style="fill:#fff"/><path d="M135.28,297.8a3.94,3.94,0,0,1,2.2,2.62l1.11,3A4.9,4.9,0,0,0,140,305.6a3.37,3.37,0,0,1-2.64,1.19c-1.46,0-2-.81-2.53-2.35l-1.25-3.54a2.69,2.69,0,0,0-2.77-2.14H129v7.79a11.88,11.88,0,0,1-2,.15,11.65,11.65,0,0,1-2-.15V286.38l.21-.18c2.38-.06,4.64-.12,6.78-.12,4.13,0,7,2.05,7,6.28A5.66,5.66,0,0,1,135.28,297.8Zm-6.3-2.14c1-.06,2.17-.09,2.73-.09,2.59,0,3.18-1.57,3.18-3.21s-.59-3.21-3.18-3.21c-.71,0-1.81,0-2.73,0Z" style="fill:#fff"/><path d="M143.2,286.23a11.47,11.47,0,0,1,2-.15,11.76,11.76,0,0,1,2,.15v20.32a11.76,11.76,0,0,1-2,.15,11.47,11.47,0,0,1-2-.15Z" style="fill:#fff"/><path d="M155.33,301.94l-1.4,4.64a7.65,7.65,0,0,1-1.72.15,6.25,6.25,0,0,1-1.91-.27l-.14-.21,6.63-20a19.65,19.65,0,0,1,2.32-.15,14.72,14.72,0,0,1,2.29.18l6.52,20a5.09,5.09,0,0,1-2.3.51c-1.27,0-1.9-.45-2.38-2.14l-.83-2.71L161,302h-4.16C156.49,302,155.81,302,155.33,301.94Zm1-3.15,1.34,0h2.56c.27,0,.83,0,1.25,0l-.89-3c-.51-1.7-1.16-4-1.61-5.77h-.18c-.3,1.52-.92,3.66-1.31,5Z" style="fill:#fff"/><path d="M180.47,301.94l-1.4,4.64a7.71,7.71,0,0,1-1.72.15,6.25,6.25,0,0,1-1.91-.27l-.15-.21,6.64-20a19.51,19.51,0,0,1,2.32-.15,14.82,14.82,0,0,1,2.29.18l6.51,20a5,5,0,0,1-2.29.51c-1.28,0-1.9-.45-2.38-2.14l-.83-2.71-1.46,0h-4.16C181.63,302,180.94,302,180.47,301.94Zm1-3.15,1.34,0h2.56c.27,0,.83,0,1.25,0l-.9-3c-.5-1.7-1.16-4-1.6-5.77h-.18c-.3,1.52-.92,3.66-1.31,5Z" style="fill:#fff"/><path d="M197,286.26a17.66,17.66,0,0,1,2.68-.21,15.48,15.48,0,0,1,2.53.21l2.29,8.24c.2.83,1,3.9,1.13,5.09h.2c.18-1.19.93-4.26,1.13-5.09l2.27-8.24a16.1,16.1,0,0,1,2.52-.21,18,18,0,0,1,2.71.21L216,306.49a8.76,8.76,0,0,1-2,.21,11,11,0,0,1-1.76-.12l-.57-9.55c-.12-1.85-.23-4.58-.23-6.46h-.21l-3.48,12.95a14.93,14.93,0,0,1-4.08,0l-3.48-12.95H200c0,1.88-.12,4.61-.24,6.46l-.56,9.55a11.45,11.45,0,0,1-1.79.12,8.67,8.67,0,0,1-2-.21Z" style="fill:#fff"/><path d="M223.48,301.94l-1.39,4.64a7.74,7.74,0,0,1-1.73.15,6.18,6.18,0,0,1-1.9-.27l-.15-.21,6.63-20a19.79,19.79,0,0,1,2.32-.15,14.63,14.63,0,0,1,2.29.18l6.52,20a5.08,5.08,0,0,1-2.29.51c-1.28,0-1.91-.45-2.38-2.14l-.83-2.71-1.46,0h-4.17C224.65,302,224,302,223.48,301.94Zm1-3.15,1.34,0h2.55l1.25,0-.89-3c-.5-1.7-1.16-4-1.61-5.77h-.17c-.3,1.52-.93,3.66-1.31,5Z" style="fill:#fff"/><path d="M251.51,305.21a9.4,9.4,0,0,1-5.33,1.49c-2.5,0-4.43-.06-7-.12l-.21-.18v-20l.21-.18c2.56-.09,4.52-.12,7-.12a9.4,9.4,0,0,1,5.33,1.49c2.73,2.2,3.24,5.35,3.24,8.81S254.27,303,251.51,305.21Zm-5.33-16c-1.13,0-2.05,0-3.24,0v14.36c1.19,0,2.11,0,3.24,0,3.9,0,4.46-3.9,4.46-7.17S250.08,289.24,246.18,289.24Z" style="fill:#fff"/><path d="M261.29,301.94l-1.39,4.64a7.8,7.8,0,0,1-1.73.15,6.18,6.18,0,0,1-1.9-.27l-.15-.21,6.63-20a19.79,19.79,0,0,1,2.32-.15,14.63,14.63,0,0,1,2.29.18l6.52,20a5.08,5.08,0,0,1-2.29.51c-1.28,0-1.91-.45-2.38-2.14l-.84-2.71-1.45,0h-4.17C262.45,302,261.77,302,261.29,301.94Zm1-3.15,1.33,0h2.56c.27,0,.83,0,1.25,0l-.89-3c-.51-1.7-1.16-4-1.61-5.77h-.18c-.29,1.52-.92,3.66-1.3,5Z" style="fill:#fff"/><path d="M103.71,279.27a3.73,3.73,0,0,1,1.6,2.13l-4.93,2.93a2.24,2.24,0,0,1-1.1-1.34Z" style="fill:#fff"/><path d="M82.78,366l2.28,0c1,0,1.53.48,1.53,1.45v3.8a12.75,12.75,0,0,1-3.92.59,4.61,4.61,0,0,1-1.84-.34,3.67,3.67,0,0,1-1.35-1,4.57,4.57,0,0,1-.82-1.6,7.85,7.85,0,0,1-.27-2.15,6.39,6.39,0,0,1,.38-2.29,4.89,4.89,0,0,1,1-1.63,4.27,4.27,0,0,1,1.48-1,4.73,4.73,0,0,1,1.75-.33,6.54,6.54,0,0,1,3.53,1,1.53,1.53,0,0,1-.11.47,2.92,2.92,0,0,1-.23.47,2.51,2.51,0,0,1-.69.71,4.42,4.42,0,0,0-2.43-.78c-1.57,0-2.35,1.1-2.35,3.3s.8,3.28,2.41,3.28c.22,0,.44,0,.64,0l.62-.08v-1c0-.23,0-.42,0-.58s0-.31,0-.42h-.73a1.21,1.21,0,0,1-.86-.24,1.06,1.06,0,0,1-.23-.74A3.28,3.28,0,0,1,82.78,366Z" style="fill:#fff"/><path d="M94.35,371c-1-.86-1.54-2.27-1.54-4.23a7.56,7.56,0,0,1,.29-2.24,4.35,4.35,0,0,1,.86-1.61,3.56,3.56,0,0,1,1.35-1,4.91,4.91,0,0,1,3.59,0,3.45,3.45,0,0,1,1.36,1,4.38,4.38,0,0,1,.85,1.62,7.45,7.45,0,0,1,.3,2.22,7.55,7.55,0,0,1-.3,2.22,4.42,4.42,0,0,1-.85,1.61,3.52,3.52,0,0,1-1.36,1,4.66,4.66,0,0,1-1.8.33A4.16,4.16,0,0,1,94.35,371Zm1.17-2a1.53,1.53,0,0,0,1.58,1.12,1.45,1.45,0,0,0,1-.29,2,2,0,0,0,.58-.75,3.65,3.65,0,0,0,.28-1A8.53,8.53,0,0,0,99,366.9c0-.33,0-.71,0-1.12a5.28,5.28,0,0,0-.21-1.17,2.27,2.27,0,0,0-.55-.91,1.49,1.49,0,0,0-1.1-.37,1.45,1.45,0,0,0-1.06.36,2.06,2.06,0,0,0-.55.87,4.47,4.47,0,0,0-.23,1.11c0,.39,0,.73,0,1a8.57,8.57,0,0,0,.07,1.19A6.43,6.43,0,0,0,95.52,369Z" style="fill:#fff"/><path d="M111.33,369.71l1.89-7.94a4.48,4.48,0,0,1,2.08.07l.09.12-2.7,9.69c-.55.05-1.1.08-1.66.08a2.57,2.57,0,0,1-1.2-.21,1.33,1.33,0,0,1-.55-.83L106.87,362a3.53,3.53,0,0,1,1.29-.33,1.23,1.23,0,0,1,.9.28,1.87,1.87,0,0,1,.45.86l1.11,4.12c.17.65.36,1.53.55,2.63C111.19,369.65,111.24,369.71,111.33,369.71Z" style="fill:#fff"/><path d="M123.85,368.73v1h0l1.06,0h3.35a5.71,5.71,0,0,1-.05.83q-.16,1.11-1.47,1.11h-3.85a1.29,1.29,0,0,1-1-.36,1.34,1.34,0,0,1-.36-1v-8.47l.1-.1h6.24a5.14,5.14,0,0,1,.08.91,3,3,0,0,1-.2,1h-3.93v2.05H127a2.88,2.88,0,0,1,.13.92,3.23,3.23,0,0,1-.13,1h-3.18Z" style="fill:#fff"/><path d="M141.9,364.82a2.76,2.76,0,0,1-.15.91,2.71,2.71,0,0,1-.38.76,2.46,2.46,0,0,1-.57.59,2.54,2.54,0,0,1-.67.39,2,2,0,0,1,1.12,1.33l.43,1.23a2.12,2.12,0,0,0,.72,1.07,1.6,1.6,0,0,1-.65.48,2.31,2.31,0,0,1-.95.2,1.06,1.06,0,0,1-.81-.3,2.76,2.76,0,0,1-.54-1l-.52-1.52a1.64,1.64,0,0,0-.42-.67,1.24,1.24,0,0,0-.81-.23h-.59v3.62a7.34,7.34,0,0,1-1.16.08,7.06,7.06,0,0,1-1.14-.08v-9.81l.1-.1,2.12,0,1.35,0a5.08,5.08,0,0,1,1.45.2,3,3,0,0,1,1.1.58,2.57,2.57,0,0,1,.71,1A3.42,3.42,0,0,1,141.9,364.82Zm-4.79-1.42v2.85c.43,0,.81,0,1.11,0a1.73,1.73,0,0,0,.75-.17,1,1,0,0,0,.42-.43,1.72,1.72,0,0,0,.15-.8c0-.94-.45-1.41-1.36-1.41h-.6Z" style="fill:#fff"/><path d="M156.44,361.67l.1.1v9.83a6,6,0,0,1-1.36.13,11.51,11.51,0,0,1-1.4-.08l-2.27-5.18c-.27-.59-.54-1.27-.82-2l-.05,0q.18,2.1.18,4.32v2.88a6.67,6.67,0,0,1-1.09.08,6.41,6.41,0,0,1-1.07-.08v-9.84a6.3,6.3,0,0,1,1.33-.13,9.59,9.59,0,0,1,1.38.09l2.24,5.16c.4,1,.7,1.69.9,2.2l.05,0c-.11-1.34-.17-2.76-.17-4.26v-1.77a1.58,1.58,0,0,1,.3-1.08,1.34,1.34,0,0,1,1-.32Z" style="fill:#fff"/><path d="M164.66,371c-1-.86-1.55-2.27-1.55-4.23a7.55,7.55,0,0,1,.3-2.24,4.34,4.34,0,0,1,.85-1.61,3.56,3.56,0,0,1,1.35-1,4.91,4.91,0,0,1,3.59,0,3.45,3.45,0,0,1,1.36,1,4.55,4.55,0,0,1,.86,1.62,7.81,7.81,0,0,1,.29,2.22,7.91,7.91,0,0,1-.29,2.22,4.59,4.59,0,0,1-.86,1.61,3.52,3.52,0,0,1-1.36,1,4.66,4.66,0,0,1-1.8.33A4.12,4.12,0,0,1,164.66,371Zm1.17-2a1.52,1.52,0,0,0,1.57,1.12,1.49,1.49,0,0,0,1-.29,2.14,2.14,0,0,0,.57-.75,3.66,3.66,0,0,0,.29-1,10.69,10.69,0,0,0,.07-1.12c0-.33,0-.71,0-1.12a4.34,4.34,0,0,0-.21-1.17,2.17,2.17,0,0,0-.55-.91,1.48,1.48,0,0,0-1.1-.37,1.46,1.46,0,0,0-1.06.36,2.06,2.06,0,0,0-.55.87,4.46,4.46,0,0,0-.22,1.11c0,.39,0,.73,0,1a10.45,10.45,0,0,0,.07,1.19A5.61,5.61,0,0,0,165.83,369Z" style="fill:#fff"/><path d="M188.72,363.74v2h3.11a3.45,3.45,0,0,1,.12.94,3.53,3.53,0,0,1-.12.95h-3.11v4a8.31,8.31,0,0,1-2.3,0v-9.79l.1-.09h6.19a3.79,3.79,0,0,1,.09.9,1,1,0,0,1-.3.81,1.41,1.41,0,0,1-.93.26Z" style="fill:#fff"/><path d="M201.41,368.73v1h0l1.06,0h3.35a5.71,5.71,0,0,1-.05.83q-.16,1.11-1.47,1.11h-3.85a1.29,1.29,0,0,1-1-.36,1.34,1.34,0,0,1-.36-1v-8.47l.1-.1h6.24a5.14,5.14,0,0,1,.08.91,2.81,2.81,0,0,1-.2,1H201.4v2.05h3.18a2.88,2.88,0,0,1,.13.92,3.23,3.23,0,0,1-.13,1h-3.18Z" style="fill:#fff"/><path d="M218.76,371a3,3,0,0,1-1.21.55,7.18,7.18,0,0,1-1.66.17h-1.3l-2.12,0-.1-.11v-9.73l.1-.1,1.75,0,1.9,0a4.77,4.77,0,0,1,2,.39,3.42,3.42,0,0,1,1.32,1.07,4.37,4.37,0,0,1,.69,1.6,8.86,8.86,0,0,1,.2,2,8.46,8.46,0,0,1-.33,2.5A3.59,3.59,0,0,1,218.76,371Zm-2.66-1.08c1.28,0,1.91-1.07,1.91-3.21s-.63-3.23-1.91-3.23h-1.43v6.46h1.43Z" style="fill:#fff"/><path d="M229.26,368.73v1h0l1.06,0h3.35a5.71,5.71,0,0,1,0,.83q-.17,1.11-1.47,1.11h-3.85a1.29,1.29,0,0,1-1-.36,1.34,1.34,0,0,1-.36-1v-8.47l.1-.1h6.24a5.14,5.14,0,0,1,.08.91,2.81,2.81,0,0,1-.2,1h-3.93v2.05h3.18a2.88,2.88,0,0,1,.13.92,3.23,3.23,0,0,1-.13,1h-3.18Z" style="fill:#fff"/><path d="M247.31,364.82a2.76,2.76,0,0,1-.15.91,2.71,2.71,0,0,1-.38.76,2.63,2.63,0,0,1-.56.59,2.77,2.77,0,0,1-.68.39,2,2,0,0,1,1.12,1.33l.43,1.23a2.18,2.18,0,0,0,.72,1.07,1.6,1.6,0,0,1-.65.48,2.28,2.28,0,0,1-.95.2,1.06,1.06,0,0,1-.81-.3,2.91,2.91,0,0,1-.54-1l-.52-1.52a1.64,1.64,0,0,0-.42-.67,1.24,1.24,0,0,0-.81-.23h-.59v3.62a7.34,7.34,0,0,1-1.16.08,7.06,7.06,0,0,1-1.14-.08v-9.81l.1-.1,2.12,0,1.35,0a5,5,0,0,1,1.45.2,3.09,3.09,0,0,1,1.11.58,2.55,2.55,0,0,1,.7,1A3.42,3.42,0,0,1,247.31,364.82Zm-4.79-1.42v2.85c.44,0,.81,0,1.11,0a1.73,1.73,0,0,0,.75-.17,1.11,1.11,0,0,0,.43-.43,1.88,1.88,0,0,0,.14-.8c0-.94-.45-1.41-1.36-1.41H243Z" style="fill:#fff"/><path d="M256.47,369.58l-.57,0-.63,2.1a4,4,0,0,1-1,.09,3.48,3.48,0,0,1-1.13-.16l-.07-.12,3.18-9.7a8.33,8.33,0,0,1,1.31-.09,8,8,0,0,1,1.36.1l3.13,9.72a2.42,2.42,0,0,1-1.15.28,1.64,1.64,0,0,1-1.05-.26,2.14,2.14,0,0,1-.52-1l-.28-1-.56,0Zm0-1.82.58,0h1.58l-.25-.9c-.23-.81-.5-1.8-.79-3h-.09c-.08.42-.31,1.34-.7,2.76Z" style="fill:#fff"/><path d="M271.91,369.69h2.51a6.75,6.75,0,0,1-.07,1,1.12,1.12,0,0,1-.47.71,1.63,1.63,0,0,1-1,.3h-3.27a1.33,1.33,0,0,1-1-.36,1.34,1.34,0,0,1-.37-1v-8.57l.11-.1h.84q1.35,0,1.35,1.47v6.61C271,369.71,271.42,369.69,271.91,369.69Z" style="fill:#fff"/><path d="M96.82,248.9c18.26-11.33,57.31-32.69,106.3-43.06A69,69,0,0,0,96.82,248.9Z" style="fill:none"/><path d="M227.06,224.55C160.48,228.41,114.75,249.5,91.79,263a146,146,0,0,0-16.92,11.33v.13H272.39V224.67A381.54,381.54,0,0,0,227.06,224.55Z" style="fill:#fff"/><path d="M84.9,202.58h0l-10,8.09v53.9a178.5,178.5,0,0,1,14.81-11.11A75.26,75.26,0,0,1,211.5,204.19a302.08,302.08,0,0,1,52.32-4.61c2.83,0,5.68,0,8.57.12L153.47,147.25,111.65,181Z" style="fill:#fff"/><path d="M155.29,140.65,272.39,193v-58.3H74.87v67.63L151,141.19A4.12,4.12,0,0,1,155.29,140.65Z" style="fill:#fff"/><path d="M96.9,248.58A317.69,317.69,0,0,1,203,205.78,69,69,0,0,0,96.9,248.58Z" style="fill:#fff"/><path d="M76,67.92,77.29,51a8.69,8.69,0,0,1,1.29-.07,7.87,7.87,0,0,1,1.24.07l2.83,8.71c.15.41.35,1.07.59,2s.39,1.46.42,1.64h.12a30,30,0,0,1,1-3.62L87.65,51a9.15,9.15,0,0,1,1.26-.07,9,9,0,0,1,1.25.07l1.31,16.92a3.48,3.48,0,0,1-.93.12,5.14,5.14,0,0,1-.9-.07L88.92,57.7c0-.75-.12-2.31-.2-4.69H88.6L84.68,65.29a7.16,7.16,0,0,1-1,.1,5.15,5.15,0,0,1-.9-.1L78.87,53h-.12c0,.41,0,1.2-.09,2.34s-.08,1.94-.11,2.35L77.86,68a5.86,5.86,0,0,1-1,.07A3.48,3.48,0,0,1,76,67.92Z" style="fill:#fff"/><path d="M95.14,67.94V51a4.6,4.6,0,0,1,.91-.07A5.7,5.7,0,0,1,97,51V67.94a5.63,5.63,0,0,1-1,.08A4.51,4.51,0,0,1,95.14,67.94Z" style="fill:#fff"/><path d="M112.68,50.93l.15.12V67.94a7.43,7.43,0,0,1-1.16.08,8.2,8.2,0,0,1-1.2-.08l-6-11.24c-.5-.92-1.06-2.06-1.69-3.42h-.07c.09,3.08.14,4.86.14,5.36v9.3a6.48,6.48,0,0,1-.91.08,5.18,5.18,0,0,1-.85-.08V51a7.16,7.16,0,0,1,1.13-.07,8,8,0,0,1,1.18.07l6,11.24c.4.71,1,1.87,1.73,3.49h.08c-.12-2.11-.17-4-.17-5.65V52.17a1.77,1.77,0,0,1,.19-1,.93.93,0,0,1,.8-.28Z" style="fill:#fff"/><path d="M116.85,67.94V51a4.47,4.47,0,0,1,.91-.07,5.58,5.58,0,0,1,1,.07V67.94a5.5,5.5,0,0,1-1,.08A4.37,4.37,0,0,1,116.85,67.94Z" style="fill:#fff"/><path d="M121.29,66.38a2,2,0,0,1,.87-1.51,8.86,8.86,0,0,0,5,1.71,4.61,4.61,0,0,0,2.78-.75,2.36,2.36,0,0,0,1-2c0-1.27-.87-2.3-2.62-3.08l-2.91-1.26Q122,58,122,55.29a4.17,4.17,0,0,1,.39-1.78A4.43,4.43,0,0,1,123.54,52a5.29,5.29,0,0,1,1.69-1,6.48,6.48,0,0,1,2.21-.36,11.42,11.42,0,0,1,4.91,1.19,1.94,1.94,0,0,1-.76,1.59,11.49,11.49,0,0,0-2.25-.89,7.55,7.55,0,0,0-1.9-.27,4.19,4.19,0,0,0-1.42.22,3.82,3.82,0,0,0-1.1.58,2.54,2.54,0,0,0-.7.84,2.16,2.16,0,0,0-.25,1,2.26,2.26,0,0,0,.63,1.7,5.78,5.78,0,0,0,1.78,1.08l2.8,1.21c2.46,1.08,3.69,2.57,3.69,4.49a4.41,4.41,0,0,1-1.46,3.47,6.62,6.62,0,0,1-4.54,1.32A9.27,9.27,0,0,1,121.29,66.38Z" style="fill:#fff"/><path d="M141.41,52.64l-1.37,0V67.94a5,5,0,0,1-.93.08,5.35,5.35,0,0,1-1-.08V52.61l-1.34,0h-3.18a4.59,4.59,0,0,1-.07-.81,5.07,5.07,0,0,1,.07-.83h10.89a1.89,1.89,0,0,1,.15.79c0,.57-.39.85-1.16.85Z" style="fill:#fff"/><path d="M148.43,65.38l0,1c.56,0,1.08,0,1.54,0h6.8a5,5,0,0,1-.05.79,1.08,1.08,0,0,1-1.22.87h-7.81a1,1,0,0,1-.78-.33,1.33,1.33,0,0,1-.29-.91V51.15l.15-.15h9.57a4.23,4.23,0,0,1,.05.78,2.84,2.84,0,0,1-.12.86H148.4l0,1.54v4.38l1.48,0h5.14a4.86,4.86,0,0,1,.07.82,4.37,4.37,0,0,1-.07.79h-5.14l-1.48,0Zm.94-16.56,4.74-2.76a2.35,2.35,0,0,1,.94,1.67L150,49.86A1.43,1.43,0,0,1,149.37,48.82Z" style="fill:#fff"/><path d="M159.74,51l5-.07a5.65,5.65,0,0,1,4,1.29,4.62,4.62,0,0,1,1.42,3.62,4.79,4.79,0,0,1-.87,2.87,4.38,4.38,0,0,1-2.38,1.65,3,3,0,0,1,1.66,2l1.29,3.34a6,6,0,0,0,.55,1.13,2.35,2.35,0,0,0,.52.63,1.44,1.44,0,0,1-1.32.62,1.12,1.12,0,0,1-.8-.27,2.77,2.77,0,0,1-.56-1l-1.44-3.77a4.92,4.92,0,0,0-1-1.7,2.35,2.35,0,0,0-1.73-.58h-2.58v7.14a5.83,5.83,0,0,1-1,.08,4.69,4.69,0,0,1-.92-.08V51.15Zm1.73,1.46v6.78l1.28,0h1.8a4.69,4.69,0,0,0,1.72-.28,3.05,3.05,0,0,0,1.11-.72,2.5,2.5,0,0,0,.59-1.07,4.45,4.45,0,0,0,.18-1.28,4.56,4.56,0,0,0-.18-1.31,2.5,2.5,0,0,0-.59-1.07,3,3,0,0,0-1.13-.71,5.31,5.31,0,0,0-1.78-.26h-1.78C162.19,52.49,161.79,52.48,161.47,52.46Z" style="fill:#fff"/><path d="M173.4,67.94V51a4.6,4.6,0,0,1,.91-.07,5.7,5.7,0,0,1,1,.07V67.94a5.63,5.63,0,0,1-1,.08A4.51,4.51,0,0,1,173.4,67.94Z" style="fill:#fff"/><path d="M180.92,66.8q-2.62-2.33-2.63-7.32a14.28,14.28,0,0,1,.43-3.58A8.38,8.38,0,0,1,180,53.12a5.85,5.85,0,0,1,2.1-1.79A6.27,6.27,0,0,1,185,50.7a6,6,0,0,1,3,.71A6.17,6.17,0,0,1,190,53.32a8.23,8.23,0,0,1,1.23,2.79,13.49,13.49,0,0,1,.4,3.35,14.22,14.22,0,0,1-.43,3.58A8.29,8.29,0,0,1,190,65.82a5.75,5.75,0,0,1-2.1,1.79,6.34,6.34,0,0,1-2.89.63A5.79,5.79,0,0,1,180.92,66.8Zm-.42-9.86a7.12,7.12,0,0,0-.16,1.24c0,.42,0,.85,0,1.28a18.37,18.37,0,0,0,.17,2.38,8.55,8.55,0,0,0,.67,2.34A4.69,4.69,0,0,0,182.56,66a3.83,3.83,0,0,0,2.4.71,4.12,4.12,0,0,0,1.74-.35,3.92,3.92,0,0,0,1.26-.91,4.12,4.12,0,0,0,.83-1.31,8.77,8.77,0,0,0,.5-1.55,11.47,11.47,0,0,0,.26-1.61c0-.53.07-1,.07-1.49a16.93,16.93,0,0,0-.17-2.37,7.83,7.83,0,0,0-.68-2.34A4.9,4.9,0,0,0,187.36,53a3.75,3.75,0,0,0-2.4-.71,4,4,0,0,0-1.91.41,3.8,3.8,0,0,0-1.3,1.07,5.06,5.06,0,0,0-.79,1.49A12.56,12.56,0,0,0,180.5,56.94Z" style="fill:#fff"/><path d="M208.4,66.78a4.18,4.18,0,0,1-.84.53,6.91,6.91,0,0,1-1.05.4,9.35,9.35,0,0,1-1.12.24,6.24,6.24,0,0,1-1,.09l-1.74,0-3.47-.08-.15-.15V51.15l.15-.15c1.44,0,3.12-.07,5-.07a6.92,6.92,0,0,1,3.22.67,5.45,5.45,0,0,1,2.07,1.82,7.61,7.61,0,0,1,1.11,2.73,17.11,17.11,0,0,1,.32,3.36c0,.83,0,1.59-.11,2.29a9.47,9.47,0,0,1-.41,2,7,7,0,0,1-.8,1.65A6.41,6.41,0,0,1,208.4,66.78Zm-7.46-.33,3.27,0a4.44,4.44,0,0,0,2.33-.56A4.19,4.19,0,0,0,208,64.44a6.39,6.39,0,0,0,.75-2.07,12.67,12.67,0,0,0,.21-2.29,26.11,26.11,0,0,0-.17-3.06,6.91,6.91,0,0,0-.72-2.4,4,4,0,0,0-1.52-1.57,4.59,4.59,0,0,0-2.33-.56l-3.27,0Z" style="fill:#fff"/><path d="M215.5,66.8q-2.62-2.33-2.63-7.32a13.83,13.83,0,0,1,.43-3.58,8.38,8.38,0,0,1,1.28-2.78,5.85,5.85,0,0,1,2.1-1.79,6.27,6.27,0,0,1,2.86-.63,6.05,6.05,0,0,1,3,.71,6.17,6.17,0,0,1,2.09,1.91,8.23,8.23,0,0,1,1.23,2.79,13.49,13.49,0,0,1,.4,3.35A13.77,13.77,0,0,1,225.8,63a8.09,8.09,0,0,1-1.27,2.78,5.75,5.75,0,0,1-2.1,1.79,6.34,6.34,0,0,1-2.89.63A5.78,5.78,0,0,1,215.5,66.8Zm-.42-9.86a7.12,7.12,0,0,0-.16,1.24c0,.42,0,.85,0,1.28a18.37,18.37,0,0,0,.17,2.38,8.55,8.55,0,0,0,.67,2.34A4.69,4.69,0,0,0,217.14,66a3.83,3.83,0,0,0,2.4.71,4.12,4.12,0,0,0,1.74-.35,4,4,0,0,0,1.26-.91,4.12,4.12,0,0,0,.83-1.31,8.77,8.77,0,0,0,.5-1.55,13.14,13.14,0,0,0,.26-1.61c.05-.53.07-1,.07-1.49a16.93,16.93,0,0,0-.17-2.37,8.13,8.13,0,0,0-.68-2.34A4.82,4.82,0,0,0,221.93,53a3.72,3.72,0,0,0-2.39-.71,4,4,0,0,0-1.91.41,3.8,3.8,0,0,0-1.3,1.07,5.33,5.33,0,0,0-.8,1.49A14.18,14.18,0,0,0,215.08,56.94Z" style="fill:#fff"/><path d="M75.49,92.57,76.8,75.71a12.64,12.64,0,0,1,2.2-.18,11.71,11.71,0,0,1,2.14.18l1.91,6.87c.51,2,.83,3.46,1,4.24h.17c.11-.78.43-2.19.94-4.24L87,75.71a13.29,13.29,0,0,1,4.36,0l1.32,16.86a6.24,6.24,0,0,1-1.6.18,9.78,9.78,0,0,1-1.56-.1l-.47-8c-.13-2-.19-3.85-.19-5.39h-.18l-2.9,10.8a12.1,12.1,0,0,1-3.4,0l-2.9-10.8h-.17c0,2-.1,3.83-.2,5.39l-.47,8a9.73,9.73,0,0,1-1.55.1A6.19,6.19,0,0,1,75.49,92.57Z" style="fill:#fff"/><path d="M98.63,88.38l0,1.54,1.74,0h6.08a7.36,7.36,0,0,1-.08,1.22,1.87,1.87,0,0,1-2.13,1.59h-7a1.82,1.82,0,0,1-1.4-.54,2,2,0,0,1-.51-1.45V75.86l.17-.18h10.35A7.07,7.07,0,0,1,106,77a4.51,4.51,0,0,1-.27,1.48H98.6l0,1.71v2.55l1.61,0h4.19a4.19,4.19,0,0,1,.2,1.36,4.26,4.26,0,0,1-.2,1.37h-5.8Z" style="fill:#fff"/><path d="M108.6,92.62V75.68a9,9,0,0,1,1.64-.12,10.38,10.38,0,0,1,1.71.12V92.62a9.3,9.3,0,0,1-1.71.13A8.1,8.1,0,0,1,108.6,92.62Z" style="fill:#fff"/><path d="M116.78,91.46c-1.76-1.52-2.65-3.95-2.65-7.29a13,13,0,0,1,.49-3.75A7.79,7.79,0,0,1,116,77.65a6.17,6.17,0,0,1,2.26-1.72,8,8,0,0,1,6,0,6.1,6.1,0,0,1,2.24,1.72A7.92,7.92,0,0,1,128,80.43a13.41,13.41,0,0,1,.48,3.74,13.21,13.21,0,0,1-.48,3.72,7.82,7.82,0,0,1-1.41,2.76,6.12,6.12,0,0,1-2.24,1.73,7.4,7.4,0,0,1-3,.59A6.91,6.91,0,0,1,116.78,91.46ZM125,84.17c0-4.16-1.22-6.23-3.67-6.23s-3.67,2.07-3.67,6.23,1.22,6.2,3.67,6.2S125,88.3,125,84.17Z" style="fill:#fff"/><path d="M143.6,88.78l-1.22,0h-3.47l-1.21,0-1.17,3.87a7,7,0,0,1-1.48.12,4.51,4.51,0,0,1-1.55-.22l-.12-.17,5.53-16.7a15.42,15.42,0,0,1,2-.12,10.14,10.14,0,0,1,1.86.15l5.43,16.69a3.38,3.38,0,0,1-1.73.42,2.17,2.17,0,0,1-1.43-.37,3,3,0,0,1-.74-1.41Zm-5.09-2.63,1.12,0h2.13l1.05,0-.75-2.53c-.56-1.88-1-3.49-1.34-4.81h-.15c-.15.71-.51,2.11-1.09,4.19Z" style="fill:#fff"/><path d="M149.16,92.57l1.31-16.86a12.64,12.64,0,0,1,2.2-.18,11.71,11.71,0,0,1,2.14.18l1.91,6.87c.52,2,.83,3.46.95,4.24h.17c.11-.78.43-2.19.94-4.24l1.89-6.87a13.29,13.29,0,0,1,4.36,0l1.32,16.86a6.24,6.24,0,0,1-1.6.18,9.57,9.57,0,0,1-1.55-.1l-.48-8c-.13-2-.19-3.85-.19-5.39h-.18l-2.9,10.8a12.1,12.1,0,0,1-3.4,0l-2.9-10.8H153c0,2-.1,3.83-.2,5.39l-.47,8a9.65,9.65,0,0,1-1.55.1A6.19,6.19,0,0,1,149.16,92.57Z" style="fill:#fff"/><path d="M169.2,75.66l3.28-.08,2.15,0a6.61,6.61,0,0,1,4.17,1.15,4,4,0,0,1,1.46,3.34,3.73,3.73,0,0,1-.62,2.08A3.53,3.53,0,0,1,178,83.5a4.3,4.3,0,0,1,1.19.6,4.47,4.47,0,0,1,1,1,5,5,0,0,1,.66,1.27,4.88,4.88,0,0,1-1.33,5.1A6.94,6.94,0,0,1,175,92.75l-2.35,0-3.45-.08L169,92.5V75.81ZM172.32,78v4.54h2.16c1.66,0,2.48-.76,2.48-2.29a2.29,2.29,0,0,0-.36-1.41,1.8,1.8,0,0,0-1-.65,5.66,5.66,0,0,0-1.5-.16C173.53,78,172.93,78,172.32,78Zm2.44,7h-2.44v5.41c.32,0,.68,0,1.07,0s.8,0,1.2,0a8.77,8.77,0,0,0,1.16-.11A2.22,2.22,0,0,0,177.44,89a2.9,2.9,0,0,0,.27-1.34,2.81,2.81,0,0,0-.18-1,2.38,2.38,0,0,0-1.43-1.46A3.58,3.58,0,0,0,174.76,85Z" style="fill:#fff"/><path d="M183.26,92.62V75.68a9.1,9.1,0,0,1,1.64-.12,10.3,10.3,0,0,1,1.71.12V92.62a9.23,9.23,0,0,1-1.71.13A8.16,8.16,0,0,1,183.26,92.62Z" style="fill:#fff"/><path d="M193.09,88.38l0,1.54,1.74,0h6.07a7.58,7.58,0,0,1-.07,1.22,1.87,1.87,0,0,1-2.13,1.59h-7a1.81,1.81,0,0,1-1.4-.54,2,2,0,0,1-.51-1.45V75.86l.17-.18H200.3a6.32,6.32,0,0,1,.13,1.33,4.51,4.51,0,0,1-.27,1.48h-7.1l0,1.71v2.55l1.61,0h4.19a4.19,4.19,0,0,1,.2,1.36,4.26,4.26,0,0,1-.2,1.37h-5.8Z" style="fill:#fff"/><path d="M215.76,75.53l.17.18V92.57a8.7,8.7,0,0,1-1.94.18,13.48,13.48,0,0,1-2-.13L207.4,83c-.67-1.45-1.16-2.61-1.49-3.47l-.1,0q.27,3.49.27,6.74v6.3a8.3,8.3,0,0,1-1.57.13,7.59,7.59,0,0,1-1.53-.13V75.73a8.71,8.71,0,0,1,1.89-.17,15.08,15.08,0,0,1,2,.12l4.52,9.6L213,89l.07,0c-.16-2.4-.25-4.66-.25-6.8V77.59a2.3,2.3,0,0,1,.43-1.58,1.79,1.79,0,0,1,1.41-.48Z" style="fill:#fff"/><path d="M224.93,80.27V92.62a10.79,10.79,0,0,1-3.34,0V80.27l0-1.83-1.51,0h-2.76a7.27,7.27,0,0,1-.12-1.39,7.42,7.42,0,0,1,.12-1.39H229.2a4.9,4.9,0,0,1,.17,1.35,1.32,1.32,0,0,1-.42,1.08,2.07,2.07,0,0,1-1.36.35h-1.17l-1.51,0Z" style="fill:#fff"/><path d="M233.81,88.38l0,1.54,1.73,0h6.08a7.58,7.58,0,0,1-.07,1.22,1.87,1.87,0,0,1-2.14,1.59h-7a1.84,1.84,0,0,1-1.4-.54,2,2,0,0,1-.51-1.45V75.86l.18-.18H241a7.06,7.06,0,0,1,.13,1.33,4.29,4.29,0,0,1-.28,1.48h-7.09l0,1.71v2.55l1.62,0h4.19a4.19,4.19,0,0,1,.2,1.36,4.26,4.26,0,0,1-.2,1.37h-5.81Z" style="fill:#fff"/></svg>