<?xml version="1.0" encoding="utf-8"?>
<!-- Generator: Adobe Illustrator 23.0.1, SVG Export Plug-In . SVG Version: 6.00 Build 0)  -->
<svg version="1.1" id="Camada_1" xmlns="http://www.w3.org/2000/svg" xmlns:xlink="http://www.w3.org/1999/xlink" x="0px" y="0px"
	 viewBox="0 0 1000 428" style="enable-background:new 0 0 1000 428;" xml:space="preserve">
<g style="display:none;">
	<rect x="0.5" y="-284.5" style="display:inline;fill:#73ADA5;" width="295" height="77"/>
	<path style="display:inline;" d="M1003-284V718H1V-284H1003 M1004-285H0V719h1004V-285L1004-285z"/>
</g>
<g>
	<path d="M582.6,270.8c0,0.1,0.1,0.1,0.1,0.2c0,0,0,0,0-0.1L582.6,270.8z"/>
	<g>
		<g>
			<polygon points="330.1,280.2 323.7,276.7 349.4,229.1 349.8,228.7 379.6,197.1 384.9,202.1 355.5,233.4 			"/>
		</g>
		<g>
			<path d="M242.1,385.8c-0.5,0-1.1-0.1-1.6-0.3l-34.8-13.3c-2.2-0.8-3.4-3.3-2.6-5.5l14.2-42.4c0.4-1.2,0.1-2.6-0.8-3.5l-37.6-37.1
				c-0.8-0.8-1.3-2-1.3-3.1v-35.1c0-1.1-0.5-2.1-1.4-2.7l-58-42.9c-0.6-0.4-1.3-0.7-2-0.7H67.2c-1.7,0-3.2-0.9-3.9-2.4l-19.5-37.6
				c-1-1.9-0.5-4.1,1.1-5.5l43.7-35.5c1.3-1,1.6-2.8,0.9-4.2l-7.6-14.7c-1-2-0.4-4.4,1.4-5.7l19.6-13.8c1-0.7,2.2-1,3.4-0.7
				c1.2,0.2,2.2,1,2.9,2l6.6,10.5c1,1.6,3.1,2.1,4.7,1.1l12.2-7.5c1-0.6,1.6-1.6,1.6-2.8l0.5-10.7c0.1-2.3,2-4.1,4.3-4.2l31-1
				c2.2-0.1,4.1,1.5,4.5,3.6l1.8,10.1c0.3,1.7,1.8,2.9,3.5,2.8l16.8-0.6c0.2,0,0.4,0,0.6-0.1l47.6-10.5c2-0.4,4,0.5,4.9,2.4
				l10.9,22.4c0.4,0.7,0.9,1.3,1.7,1.6l115.2,51.3c1.9,0.8,3,2.9,2.5,5l-8.9,41.9c-0.2,1-0.8,1.9-1.5,2.5l-21.4,17.3
				c-0.6,0.5-1,1.1-1.2,1.9l0,0.1l-40.3,76.2c-0.4,1.4-1.4,2.5-2.7,3l-35.8,36.9l-0.1,0c-0.9,0.3-1.6,1-2,1.9l-19.9,46.6
				C245.4,384.8,243.8,385.8,242.1,385.8z M44.6,158.7l19.5,37.6c0.6,1.1,1.8,1.8,3,1.8h48.9c1,0,1.9,0.3,2.6,0.9l58,42.9
				c1.1,0.8,1.8,2.2,1.8,3.6v35.1c0,0.9,0.4,1.8,1,2.4l37.6,37.1c1.2,1.2,1.6,3,1.1,4.5L204.1,367c-0.6,1.7,0.3,3.6,2,4.3l34.8,13.3
				c1.7,0.7,3.6-0.2,4.4-1.9l19.9-46.6c0.5-1.1,1.4-2,2.5-2.4l35.8-36.9l0.1,0c1.1-0.4,1.9-1.3,2.2-2.4l0-0.1L346,218
				c0.2-0.9,0.8-1.7,1.5-2.3l21.4-17.3c0.6-0.5,1-1.2,1.2-1.9l8.9-41.9c0.3-1.6-0.5-3.2-2-3.8L262,99.3c-0.9-0.4-1.7-1.2-2.2-2.1
				l-10.9-22.4c-0.7-1.4-2.3-2.2-3.8-1.8l-47.6,10.5c-0.3,0.1-0.5,0.1-0.8,0.1L180,84.2c-2.2,0.1-4.1-1.5-4.5-3.6l-1.8-10.1
				c-0.3-1.7-1.8-2.9-3.5-2.8l-31,1c-1.8,0.1-3.2,1.5-3.3,3.3l-0.5,10.7c-0.1,1.5-0.9,2.8-2.1,3.6L121,93.6
				c-2.1,1.3-4.8,0.6-6.1-1.4l-6.6-10.5c-0.5-0.8-1.3-1.4-2.2-1.5c-0.9-0.2-1.9,0-2.6,0.6L83.9,94.4c-1.4,1-1.9,2.9-1.1,4.4
				l7.6,14.7c1,1.9,0.5,4.1-1.1,5.5l-43.7,35.5C44.3,155.5,43.9,157.2,44.6,158.7L44.6,158.7z"/>
		</g>
		<g>
			<polygon points="284.4,315 256.7,289.1 298.2,257.5 301.6,261.8 265.2,289.5 288.2,311 			"/>
		</g>
		<g>
			<rect x="234.5" y="81.6" transform="matrix(0.5061 -0.8625 0.8625 0.5061 53.187 263.324)" width="44" height="7.3"/>
		</g>
		<g>
			<rect x="362" y="164" transform="matrix(0.6458 -0.7635 0.7635 0.6458 -12.1919 344.9821)" width="7.3" height="43.3"/>
		</g>
		<g>
			<rect x="240.9" y="175.6" transform="matrix(0.9572 -0.2894 0.2894 0.9572 -49.8074 79.5684)" width="6.5" height="65.3"/>
		</g>
		<g>
			<rect x="311.7" y="251.1" transform="matrix(0.6694 -0.7429 0.7429 0.6694 -95.3171 323.113)" width="7.3" height="35"/>
		</g>
		<g>
			<path d="M270.8,63.7c-1.2-2.5-4-3.9-6.7-3.3l-45.3,10L202.3,71l-2.9-15.8l-36,1.1c-3.1,0.1-5.7,2.6-5.9,5.8L157,73.2l-12.1,7.4
				L138,69.6c-0.9-1.4-2.3-2.4-3.9-2.7c-1.6-0.3-3.3,0-4.7,1l-19.9,14c-2.5,1.7-3.3,5.1-1.9,7.7l7.7,14.8l-42,34.1
				c-2.2,1.8-2.9,5-1.6,7.5l18.9,36.6c1,2,3.1,3.3,5.4,3.3h46.8l54.9,40.6v33.7c0,1.6,0.7,3.2,1.8,4.3l35.8,35.4l-13.7,41
				c-1,3.1,0.5,6.4,3.6,7.6l34.4,13.1c0.7,0.3,1.4,0.4,2.2,0.4c2.4,0,4.6-1.4,5.6-3.7l19.1-44.9l42.1-30.8l53.6,1l0.1-6.5l-55.5-1.1
				l-0.3,0l-42.9,31.5c-1.4,0.6-2.5,1.7-3,3.1l-19,44.7L228,342.4l14.9-44.4l-38.6-38.1v-33.7c0-1.9-0.9-3.7-2.5-4.9l-56.9-42.1
				H96.3l-18.6-36l42-34.1c2.2-1.8,2.9-5,1.6-7.5l-7.7-14.8l19.2-13.4l10.1,16.2l17.8-11c1.7-1.1,2.8-2.9,2.9-4.9l0.5-10.9l30-0.9
				l1.9,10.7c0.5,2.9,3.2,5,6.2,5l16.8-0.6l46.1-10"/>
			<path d="M310.9,203.4l9.5-34.2c0.5-1.8-0.4-3.8-2.2-4.5l-69.6-28.3c-0.4-0.2-0.9-0.3-1.4-0.3h-60.5v6.5h59.9l66.8,27.1l-8.8,31.8
				L310.9,203.4z"/>
			<path d="M364,144c0.3-1.1,0.1-2.3-0.5-3.2c-0.7-0.9-1.7-1.5-2.9-1.6l-25.3-1.4l-88.1-40c-0.7-0.3-1.6-0.4-2.4-0.2l-21.5,5.1h-32
				v-8.2c0-2.1-1.7-3.7-3.7-3.7h-12.1c-1.1,0-2.1,0.5-2.8,1.3c-0.7,0.8-1,1.9-0.9,2.9l0.4,3.6l-24,9.7c-0.3,0.1-0.6,0.3-0.8,0.5
				l-40.4,29.8c-1.4,1.1-1.9,3-1.1,4.7l6.8,14c0.6,1.3,1.9,2.1,3.4,2.1h28.6l81.5,56.5l-0.3,36.8c0,0.9,0.3,1.8,0.9,2.5l33.8,38.6
				l4.9-4.3l-33.1-37.8l0.3-37.2c0-1.2-0.6-2.4-1.6-3.1l-83.5-57.8c-0.6-0.4-1.4-0.7-2.1-0.7h-27.7l-5-10.4l38.2-28.2l25.7-10.4
				c1.6-0.6,2.5-2.2,2.3-3.9l-0.3-2.6h6.2v8.2c0,2.1,1.7,3.7,3.7,3.7h35.2l21.8-5l87.7,39.8c0.4,0.2,0.9,0.3,1.3,0.3l21.9,1.2
				l-9.7,24.7l6.1,2.4l11.1-28.4L364,144z"/>
			<path d="M275.6,256.9l-16.9-18.1l-4.8,4.5l17.7,19c0.7,0.8,1.7,1.2,2.7,1.2h28c1.7,0,3.2-1.2,3.6-2.9l0.2-0.9l-3.9-0.9v-0.9
				c0,0,0,0,0,0h0v-0.9H275.6z"/>
			<path d="M353.4,228l-70.8-0.8l-5.5-31.7l-0.1-0.2c-0.3-0.7-0.8-1.2-1.5-1.6l-39.2-21.1L233,178l38.4,20.7l5.8,32.6l0.1,0.2
				c0.6,1.3,1.8,2.1,3.2,2.2l72.9,0.8L353.4,228z"/>
		</g>
		<path style="stroke:#FFFFFF;stroke-width:0.75;stroke-miterlimit:10;" d="M429.8,64.6l-5.7-6c-1.6-1.7-3.7-2.6-5.9-2.6l-26.7-0.1
			c-1.2,0-2.3,0.5-3.2,1.3c-0.9,0.9-1.4,2.1-1.4,3.4v50.6c0,2.6,2.1,4.7,4.6,4.7h36.2c2.5,0,4.6-2.1,4.6-4.7V70.8
			C432.3,68.5,431.4,66.3,429.8,64.6z M428.8,111.2c0,0.7-0.5,1.3-1.1,1.3h-36.2c-0.6,0-1.1-0.6-1.1-1.3V60.6c0-0.4,0.1-0.7,0.4-0.9
			c0.1-0.1,0.4-0.3,0.7-0.3c0,0,0,0,0,0l24.8,0.1v6.6c0,3.8,3,6.9,6.6,6.9h2v-2.9h-2c-2.1,0-3.7-1.8-3.7-4v-6.5
			c0.9,0.2,1.7,0.7,2.4,1.4l5.7,6c0.9,1,1.5,2.4,1.5,3.8V111.2z"/>
		<path style="stroke:#FFFFFF;stroke-width:0.75;stroke-miterlimit:10;" d="M432,152l-3-6.3c0.8-0.1,1.5-0.8,1.5-1.7
			c0-1-0.8-1.7-1.7-1.7h-1.3h-33.7h-1.6c-1,0-1.7,0.8-1.7,1.7c0,0.8,0.6,1.5,1.4,1.7l-2.6,4.6c-0.6,1.1-1,2.3-1,3.6V205
			c0,1.8,0.6,3.4,1.8,4.8l6.9,7.8h27.6l6.6-7.9c1.1-1.3,1.7-2.9,1.7-4.6v-50C432.7,154,432.5,152.9,432,152z M391.6,161.1H409
			c0.8,0,1.4,0.6,1.4,1.4v31.6c0,0.8-0.6,1.4-1.4,1.4h-17.3V161.1z M429.2,205.1c0,0.9-0.3,1.7-0.9,2.4l-5.6,6.6h-24.4l-5.9-6.7
			c-0.6-0.7-0.9-1.6-0.9-2.5v-6.6H409c2.4,0,4.3-1.9,4.3-4.3v-31.6c0-2.4-1.9-4.3-4.3-4.3h-17.3v-4.4c0-0.7,0.2-1.3,0.5-1.9l3.6-6.3
			h21l5,9.3v5.7h2.9v-6.4l-4.6-8.5h5.2l3.6,7.8c0.2,0.5,0.4,1,0.4,1.6V205.1z"/>
		<g>
			<g>
				<circle cx="96.5" cy="181" r="11.9"/>
			</g>
			<g>
				<circle cx="96.5" cy="181" r="5.3"/>
			</g>
		</g>
		<g>
			<g>
				<circle cx="267.6" cy="64.8" r="11.9"/>
			</g>
			<g>
				<circle cx="267.6" cy="64.8" r="5.3"/>
			</g>
		</g>
		<g>
			<g>
				<circle cx="229.4" cy="346.6" r="15.3"/>
			</g>
			<g>
				<circle cx="229.4" cy="346.6" r="6.8"/>
			</g>
		</g>
		<g>
			<g>
				<circle cx="286.3" cy="313" r="12.6"/>
			</g>
			<g>
				<circle cx="286.3" cy="313" r="5.6"/>
			</g>
		</g>
		<g>
			<g>
				<g>
					<circle cx="115.6" cy="106" r="11.9"/>
				</g>
			</g>
			<g>
				<circle cx="115.6" cy="106" r="5.3"/>
			</g>
		</g>
		<g>
			<g>
				<circle cx="132.7" cy="69.3" r="6.7"/>
			</g>
			<g>
				<circle cx="132.7" cy="69.3" r="3"/>
			</g>
		</g>
		<g>
			<g>
				<circle cx="142.4" cy="87.3" r="6.7"/>
			</g>
			<g>
				<circle cx="142.4" cy="87.3" r="3"/>
			</g>
		</g>
		<g>
			<g>
				<circle cx="109.6" cy="141.3" r="6.7"/>
			</g>
			<g>
				<circle cx="109.6" cy="141.3" r="3"/>
			</g>
		</g>
		<g>
			<g>
				<circle cx="200.9" cy="54.7" r="10.1"/>
			</g>
			<g>
				<circle cx="200.9" cy="54.7" r="4.5"/>
			</g>
		</g>
		<g>
			<g>
				<circle cx="74.6" cy="144.4" r="15.5"/>
			</g>
			<g>
				<circle cx="74.6" cy="144.4" r="6.9"/>
			</g>
		</g>
		<g>
			<g>
				<circle cx="182.3" cy="139.5" r="11.9"/>
			</g>
			<g>
				<circle cx="182.3" cy="139.5" r="5.3"/>
			</g>
		</g>
		<g>
			<rect x="308.1" y="197" width="74.2" height="4.7"/>
		</g>
		<g>
			<g>
				<circle cx="308.1" cy="197.6" r="11.9"/>
			</g>
			<g>
				<circle cx="308" cy="197.5" r="5.4"/>
			</g>
		</g>
		<g>
			<g>
				<circle cx="234.7" cy="177" r="11.9"/>
			</g>
			<g>
				<circle cx="234.7" cy="177" r="5.3"/>
			</g>
		</g>
		<g>
			<g>
				<g>
					<circle cx="262.3" cy="289.3" r="11.9"/>
				</g>
			</g>
			<g>
				<circle cx="262.3" cy="289.3" r="5.3"/>
			</g>
		</g>
		<g>
			<g>
				<g>
					<circle cx="302.7" cy="259.2" r="11.9"/>
				</g>
			</g>
			<g>
				<circle cx="302.7" cy="259.2" r="5.3"/>
			</g>
		</g>
		<g>
			<g>
				<circle cx="349.2" cy="171.7" r="7.3"/>
			</g>
			<g>
				<circle cx="349.2" cy="171.7" r="3.3"/>
			</g>
		</g>
		<g>
			<g>
				<circle cx="315.4" cy="168.4" r="7.3"/>
			</g>
			<g>
				<circle cx="315.4" cy="168.4" r="3.3"/>
			</g>
		</g>
		<g>
			<g>
				<circle cx="334.2" cy="140.2" r="7.3"/>
			</g>
			<g>
				<circle cx="334.2" cy="140.2" r="3.3"/>
			</g>
		</g>
		<g>
			<g>
				<circle cx="352.5" cy="231.3" r="7.3"/>
			</g>
			<g>
				<circle cx="352.5" cy="231.3" r="3.3"/>
			</g>
		</g>
		<g>
			<g>
				<circle cx="248" cy="102.1" r="12.9"/>
			</g>
			<g>
				<circle cx="248" cy="102.1" r="5.8"/>
			</g>
		</g>
		<g>
			<g>
				<circle cx="248.2" cy="137.4" r="14.2"/>
			</g>
			<g>
				<circle cx="248.2" cy="137.4" r="6.3"/>
			</g>
		</g>
		<g>
			<g>
				<circle cx="182.3" cy="94.1" r="11"/>
			</g>
			<g>
				<circle cx="182.3" cy="94.1" r="4.9"/>
			</g>
		</g>
		<g>
			<g>
				<circle cx="253.6" cy="239.4" r="11.5"/>
			</g>
			<g>
				<circle cx="253.6" cy="239.4" r="5.1"/>
			</g>
		</g>
		<path style="stroke:#FFFFFF;stroke-width:0.75;stroke-miterlimit:10;" d="M427.9,274.9c0-6.5-3.7-12.2-9.5-15l0.5-20.4l-16.1,0.1
			l-0.5,20.5l-1.3,0.8c-5,3-8.1,8.4-8.2,14.2l-0.6,49.5c-0.1,5.6,3.5,12,8.9,12.7l0.9,0.1c3,0.4,6.2,0.8,9.4,0.8
			c3.2,0,6.4-0.4,9.4-1.4c4.2-1.5,7.2-6,7.2-10.8L427.9,274.9z M396.2,292.3c3.2,0.8,9.5,2.1,16.4,2.1c3.9,0,8.1-0.4,11.9-1.6
			l0.1,15.9c-10.9,3.7-25.4,0.2-28.6-0.6L396.2,292.3z M415.4,243l-0.1,5.3l-9.1-0.1l0.1-5.2L415.4,243z M402.9,263.9l1.7-1l5.7,0.1
			l0.1-3.5l-4.4-0.1l0.2-7.7l9.1,0.1l-0.3,10.4l1.1,0.4c5.1,2,8.3,6.8,8.4,12.2l0.1,14.2c-10.4,3.7-24.1,0.7-28.3-0.4l0.2-13.6
			C396.4,270.5,398.9,266.2,402.9,263.9z M419.8,333.5c-5.3,1.8-11.6,1.2-17.1,0.5l-0.9-0.1c-3.4-0.5-5.9-5.2-5.9-9.2l0.2-13.1
			c3,0.8,9.7,2.2,17,2.2c3.8,0,7.8-0.4,11.6-1.5l0.1,13.7C424.6,329.3,422.5,332.5,419.8,333.5z"/>
		<g>
			<g>
				<circle cx="382.2" cy="199.6" r="11.9"/>
			</g>
			<g>
				<circle cx="382.2" cy="199.6" r="5.3"/>
			</g>
		</g>
		<g>
			<g>
				<circle cx="382.2" cy="278.5" r="11.9"/>
			</g>
			<g>
				<circle cx="382.2" cy="278.5" r="5.3"/>
			</g>
		</g>
		<g>
			<rect x="157.3" y="154.3" transform="matrix(0.5639 -0.8258 0.8258 0.5639 -56.3778 209.1649)" width="25.2" height="7.3"/>
		</g>
		<g>
			<rect x="195.9" y="210.8" transform="matrix(0.5723 -0.8201 0.8201 0.5723 -87.1074 261.8694)" width="23.2" height="7.3"/>
		</g>
		<g>
			<g>
				<circle cx="199.8" cy="225.9" r="11.9"/>
			</g>
			<g>
				<circle cx="199.8" cy="225.9" r="5.3"/>
			</g>
		</g>
		<g>
			<rect x="350.2" y="128" transform="matrix(0.4389 -0.8985 0.8985 0.4389 87.0142 402.745)" width="31.5" height="7.3"/>
		</g>
		<g>
			<g>
				<circle cx="376.9" cy="112.4" r="11.9"/>
			</g>
			<g>
				<circle cx="376.9" cy="112.4" r="5.3"/>
			</g>
		</g>
	</g>
	<g>
		<path d="M523.8,91.9c22,0,34.6,6.6,41.6,20.9c2.1,4.3,0.9,6.6-3.6,8.3l-14.9,6.4c-4,1.8-5.7,1.2-8-3.1c-2.8-5.7-8.2-7.7-15-7.7
			c-10.1,0-14.2,2.5-14.2,7.7c0,6.4,8.8,7.7,19.5,9.1c17.3,2.4,39.6,6.6,39.6,34.7c0,21.9-19.8,34-46.2,34
			c-22.2,0-37.7-7.6-43.3-23.1c-1.6-4.5-0.3-6.6,4-8.2l14-5.1c4.5-1.5,6.6-1,8.8,3.3c2.7,5.2,8.5,7.9,16.8,7.9
			c10,0,15.9-2.1,15.9-8.5c0-5.8-7.6-7.4-17.4-8.8c-17.4-2.4-41.9-5.5-41.9-34.4C479.6,105.6,495.3,91.9,523.8,91.9z"/>
		<path d="M609,94.1h17.6c4.5,0,6,1.5,6,6v93.8c0,4.5-1.5,6-6,6H609c-4.5,0-6-1.5-6-6v-93.8C603.1,95.6,604.5,94.1,609,94.1z"/>
		<path d="M760.8,100.4v93.2c0,4.6-1.6,6.3-6.3,6.3h-16.8c-3.1,0-4.8-0.9-6.1-3l-22.9-35.3c-6.6-10.3-9.1-17.3-13.1-30.7h-1.2
			c3.1,14.3,4.9,21.9,4.9,38.4v24.3c0,4.6-1.6,6.3-6.4,6.3h-15c-4.8,0-6.4-1.6-6.4-6.3v-93.2c0-4.6,1.6-6.3,6.4-6.3h17.6
			c3.4,0,4.9,0.9,6.3,3l24.4,38.1c6.6,10.3,7.7,15.9,12.5,27.3h1.2c-4.8-15.3-6.7-22.5-6.7-37.7v-24.4c0-4.6,1.5-6.3,6.3-6.3h15.2
			C759.2,94.1,760.8,95.8,760.8,100.4z"/>
		<path d="M805.5,94.1h17.6c4.5,0,6,1.5,6,6v93.8c0,4.5-1.5,6-6,6h-17.6c-4.5,0-6-1.5-6-6v-93.8C799.6,95.6,801,94.1,805.5,94.1z"/>
		<path d="M953.9,130c0,14.6-6,25-16.1,30.7c1.5,1.9,2.8,4,4,6.4l13.4,25.5c2.1,4,1,7.3-3.9,7.3h-16.1c-7.9,0-11.3-1.9-13.7-7.2
			l-9.5-20.4c-2.5-5.1-5.1-7.6-11.2-7.6h-3.4v28.9c0,4.6-1.5,6.3-6.3,6.3h-16.8c-4.8,0-6.4-1.6-6.4-6.3v-93.2c0-4.6,1.6-6.3,6.4-6.3
			h42.5C939.3,94.1,953.9,106.9,953.9,130z M913.5,120.2h-16.1v19.7h16.1c6.3,0,9.8-3.9,9.8-10C923.3,123.9,919.9,120.2,913.5,120.2
			z"/>
	</g>
	<g>
		<path d="M488.5,227.1c3.5,0,5.4,1.2,6.8,4c0.2,0.3,0.1,0.5-0.3,0.7l-0.8,0.4c-0.3,0.1-0.5,0.1-0.7-0.2c-1-2.1-2.5-3-5-3
			c-3.1,0-4.8,1.2-4.8,3.4c0.1,1.6,0.8,2.4,2.3,2.8c1,0.3,1.7,0.4,3,0.6c1.5,0.2,2.3,0.3,3.6,0.7c0.6,0.2,1.1,0.5,1.5,0.9
			c0.7,0.7,1.4,1.9,1.4,3.5c0,3.4-2.5,5.4-7,5.4c-3.7,0-5.8-1.4-7-4.4c-0.1-0.3,0-0.6,0.3-0.7l0.8-0.3c0.3-0.1,0.5,0,0.7,0.3
			c1,2.2,2.7,3.4,5.2,3.4c3.4,0,5.1-1.2,5.1-3.6c-0.1-1.6-0.8-2.3-2.1-2.8c-1-0.3-1.6-0.4-2.9-0.5c-0.8-0.1-1.5-0.2-2-0.3
			c-0.5-0.1-1.1-0.3-1.8-0.5c-0.7-0.2-1.2-0.5-1.6-0.9c-0.8-0.7-1.4-1.9-1.4-3.5C481.8,229.1,484.3,227.1,488.5,227.1z"/>
		<path d="M502.1,227.9c0-0.4,0.1-0.5,0.5-0.5h0.9c0.4,0,0.5,0.1,0.5,0.5v17.3c0,0.4-0.1,0.5-0.5,0.5h-0.9c-0.4,0-0.5-0.1-0.5-0.5
			V227.9z"/>
		<path d="M517.8,227.1c3.5,0,5.4,1.2,6.8,4c0.2,0.3,0.1,0.5-0.3,0.7l-0.8,0.4c-0.3,0.1-0.5,0.1-0.7-0.2c-1-2.1-2.5-3-5-3
			c-3.1,0-4.8,1.2-4.8,3.4c0.1,1.6,0.8,2.4,2.3,2.8c1,0.3,1.7,0.4,3,0.6c1.5,0.2,2.3,0.3,3.6,0.7c0.6,0.2,1.1,0.5,1.5,0.9
			c0.7,0.7,1.4,1.9,1.4,3.5c0,3.4-2.5,5.4-7,5.4c-3.7,0-5.8-1.4-7-4.4c-0.1-0.3,0-0.6,0.3-0.7l0.8-0.3c0.3-0.1,0.5,0,0.7,0.3
			c1,2.2,2.7,3.4,5.2,3.4c3.4,0,5.1-1.2,5.1-3.6c-0.1-1.6-0.8-2.3-2.1-2.8c-1-0.3-1.6-0.4-2.9-0.5c-0.8-0.1-1.5-0.2-2-0.3
			c-0.5-0.1-1.1-0.3-1.8-0.5c-0.7-0.2-1.2-0.5-1.6-0.9c-0.8-0.7-1.4-1.9-1.4-3.5C511.1,229.1,513.5,227.1,517.8,227.1z"/>
		<path d="M542.4,227.4c0.4,0,0.5,0.1,0.5,0.5v0.7c0,0.4-0.1,0.5-0.5,0.5h-5.2v16.1c0,0.4-0.1,0.5-0.5,0.5h-0.9
			c-0.4,0-0.5-0.1-0.5-0.5v-16.1h-5.2c-0.4,0-0.5-0.1-0.5-0.5v-0.7c0-0.4,0.1-0.5,0.5-0.5H542.4z"/>
		<path d="M559.8,227.4c0.3,0,0.5,0.2,0.5,0.5v0.7c0,0.3-0.2,0.5-0.5,0.5h-9.1v6.4h8c0.3,0,0.5,0.2,0.5,0.5v0.7
			c0,0.3-0.2,0.5-0.5,0.5h-8v6.7h9.5c0.3,0,0.5,0.2,0.5,0.5v0.7c0,0.3-0.2,0.5-0.5,0.5h-10.8c-0.4,0-0.5-0.1-0.5-0.5v-17.3
			c0-0.4,0.1-0.5,0.5-0.5H559.8z"/>
		<path d="M583.4,227.4c0.4,0,0.5,0.1,0.5,0.5v17.3c0,0.4-0.1,0.5-0.5,0.5h-0.8c-0.4,0-0.5-0.1-0.5-0.5l0-10.5
			c0-1.6,0.1-3.1,0.3-4.6h-0.1c-0.5,1.3-1.2,2.7-2,4l-3.9,6.9c-0.1,0.3-0.3,0.4-0.6,0.4h-0.5c-0.3,0-0.5-0.1-0.6-0.4l-4-7
			c-0.6-1.1-1.3-2.4-1.9-4h-0.1c0.2,1.6,0.3,3.1,0.3,4.6v10.5c0,0.4-0.1,0.5-0.5,0.5h-0.7c-0.4,0-0.5-0.1-0.5-0.5v-17.3
			c0-0.4,0.1-0.5,0.5-0.5h0.7c0.3,0,0.6,0.1,0.7,0.4l6.4,11.3l6.4-11.3c0.2-0.4,0.3-0.4,0.7-0.4H583.4z"/>
		<path d="M605.9,245.3c0.1,0.3,0,0.5-0.4,0.5h-0.7c-0.5,0-0.9-0.2-0.9-0.5l-1.9-4.9h-8.1l-1.9,4.9c-0.1,0.4-0.3,0.5-0.9,0.5h-0.7
			c-0.4,0-0.5-0.2-0.3-0.5l6.9-17.5c0.1-0.3,0.3-0.4,0.6-0.4h0.8c0.3,0,0.6,0.1,0.7,0.4L605.9,245.3z M598.3,230.9
			c-0.2-0.7-0.4-1.3-0.4-1.8h-0.1c0,0.5-0.1,1.1-0.3,1.8l-3.1,7.9h7L598.3,230.9z"/>
		<path d="M633.9,227.4c0.4,0,0.5,0.1,0.5,0.5v17.3c0,0.4-0.1,0.5-0.5,0.5h-0.8c-0.3,0-0.4-0.1-0.5-0.3l-8.2-11.8
			c-0.4-0.5-0.8-1.3-1.2-2.2c-0.5-0.9-0.7-1.4-0.8-1.5h-0.1c0,0.1,0.1,0.8,0.2,1.8c0.1,1.1,0.1,2,0.1,2.7v10.7
			c0,0.3-0.2,0.5-0.5,0.5h-0.8c-0.4,0-0.5-0.1-0.5-0.5v-17.3c0-0.4,0.1-0.5,0.5-0.5h0.8c0.2,0,0.4,0.1,0.5,0.3l8,11.6
			c0.4,0.6,0.9,1.3,1.4,2.2c0.5,0.9,0.8,1.5,0.9,1.7h0.1c0-0.2-0.1-0.8-0.2-2c-0.1-1.1-0.2-2.1-0.2-2.8v-10.5c0-0.3,0.2-0.5,0.5-0.5
			H633.9z"/>
		<path d="M656.5,245.3c0.1,0.3,0,0.5-0.4,0.5h-0.7c-0.5,0-0.9-0.2-0.9-0.5l-1.9-4.9h-8.1l-1.9,4.9c-0.1,0.4-0.3,0.5-0.9,0.5h-0.7
			c-0.4,0-0.5-0.2-0.3-0.5l6.9-17.5c0.1-0.3,0.3-0.4,0.6-0.4h0.8c0.3,0,0.6,0.1,0.7,0.4L656.5,245.3z M648.9,230.9
			c-0.2-0.7-0.4-1.3-0.4-1.8h-0.1c0,0.5-0.1,1.1-0.3,1.8l-3.1,7.9h7L648.9,230.9z"/>
		<path d="M661.2,233.5c0-4.1,2.5-6.5,7.1-6.5c3.8,0,5.9,1.4,6.9,4.4c0.1,0.4,0.1,0.5-0.3,0.7l-0.8,0.3c-0.3,0.1-0.5,0-0.7-0.3
			c-0.7-2.3-2.2-3.3-5.1-3.3c-3.4,0-5.2,1.7-5.2,4.7v6.1c0,3,1.9,4.7,5.2,4.7c3,0,4.4-1.1,5.1-3.4c0.1-0.3,0.4-0.4,0.7-0.3l0.8,0.3
			c0.3,0.1,0.4,0.3,0.3,0.6c-0.9,3-3,4.5-6.9,4.5c-4.5,0-7.1-2.4-7.1-6.5V233.5z"/>
		<path d="M681.8,227.9c0-0.4,0.1-0.5,0.5-0.5h0.9c0.4,0,0.5,0.1,0.5,0.5v17.3c0,0.4-0.1,0.5-0.5,0.5h-0.9c-0.4,0-0.5-0.1-0.5-0.5
			V227.9z"/>
		<path d="M690.8,233.5c0-4.1,2.5-6.5,7.1-6.5c4.5,0,7.1,2.4,7.1,6.5v6.1c0,4.1-2.5,6.5-7.1,6.5c-4.6,0-7.1-2.4-7.1-6.5V233.5z
			 M703.1,233.5c0-3-1.8-4.8-5.2-4.8s-5.2,1.7-5.2,4.8v6.1c0,3,1.9,4.8,5.2,4.8s5.2-1.7,5.2-4.8V233.5z"/>
		<path d="M725.3,227.4c0.4,0,0.5,0.1,0.5,0.5v17.3c0,0.4-0.1,0.5-0.5,0.5h-0.8c-0.3,0-0.4-0.1-0.5-0.3l-8.2-11.8
			c-0.4-0.5-0.8-1.3-1.2-2.2c-0.5-0.9-0.7-1.4-0.8-1.5h-0.1c0,0.1,0.1,0.8,0.2,1.8c0.1,1.1,0.1,2,0.1,2.7v10.7
			c0,0.3-0.2,0.5-0.5,0.5h-0.8c-0.4,0-0.5-0.1-0.5-0.5v-17.3c0-0.4,0.1-0.5,0.5-0.5h0.8c0.2,0,0.4,0.1,0.5,0.3l8,11.6
			c0.4,0.6,0.9,1.3,1.4,2.2c0.5,0.9,0.8,1.5,0.9,1.7h0.1c0-0.2-0.1-0.8-0.2-2c-0.1-1.1-0.2-2.1-0.2-2.8v-10.5c0-0.3,0.2-0.5,0.5-0.5
			H725.3z"/>
		<path d="M747.9,245.3c0.1,0.3,0,0.5-0.4,0.5h-0.7c-0.5,0-0.9-0.2-0.9-0.5l-1.9-4.9h-8.1l-1.9,4.9c-0.1,0.4-0.3,0.5-0.9,0.5h-0.7
			c-0.4,0-0.5-0.2-0.3-0.5l6.9-17.5c0.1-0.3,0.3-0.4,0.6-0.4h0.8c0.3,0,0.6,0.1,0.7,0.4L747.9,245.3z M740.3,230.9
			c-0.2-0.7-0.4-1.3-0.4-1.8h-0.1c0,0.5-0.1,1.1-0.3,1.8l-3.1,7.9h7L740.3,230.9z"/>
		<path d="M755,227.4c0.4,0,0.5,0.1,0.5,0.5V244h8.8c0.3,0,0.5,0.2,0.5,0.5v0.7c0,0.3-0.2,0.5-0.5,0.5h-10.1c-0.4,0-0.5-0.1-0.5-0.5
			v-17.3c0-0.4,0.1-0.5,0.5-0.5H755z"/>
		<path d="M785.8,227.4c4.8,0,7.5,2.6,7.5,6.8v4.7c0,4.2-2.7,6.8-7.5,6.8h-5.4c-0.4,0-0.5-0.1-0.5-0.5v-17.3c0-0.4,0.1-0.5,0.5-0.5
			H785.8z M791.4,234.2c0-3.2-2-5.1-5.6-5.1h-4.1V244h4.1c3.6,0,5.6-1.8,5.6-5.1V234.2z"/>
		<path d="M811.2,227.4c0.3,0,0.5,0.2,0.5,0.5v0.7c0,0.3-0.2,0.5-0.5,0.5h-9.1v6.4h8c0.3,0,0.5,0.2,0.5,0.5v0.7
			c0,0.3-0.2,0.5-0.5,0.5h-8v6.7h9.5c0.3,0,0.5,0.2,0.5,0.5v0.7c0,0.3-0.2,0.5-0.5,0.5h-10.8c-0.4,0-0.5-0.1-0.5-0.5v-17.3
			c0-0.4,0.1-0.5,0.5-0.5H811.2z"/>
		<path d="M482.4,267.2c0-0.4,0.1-0.5,0.5-0.5h0.9c0.4,0,0.5,0.1,0.5,0.5v17.3c0,0.4-0.1,0.5-0.5,0.5h-0.9c-0.4,0-0.5-0.1-0.5-0.5
			V267.2z"/>
		<path d="M505.1,266.7c0.4,0,0.5,0.1,0.5,0.5v17.3c0,0.4-0.1,0.5-0.5,0.5h-0.8c-0.3,0-0.4-0.1-0.5-0.3l-8.2-11.8
			c-0.4-0.5-0.8-1.3-1.2-2.2c-0.5-0.9-0.7-1.4-0.8-1.5h-0.1c0,0.1,0.1,0.8,0.2,1.8c0.1,1.1,0.1,2,0.1,2.7v10.7
			c0,0.3-0.2,0.5-0.5,0.5h-0.8c-0.4,0-0.5-0.1-0.5-0.5v-17.3c0-0.4,0.1-0.5,0.5-0.5h0.8c0.2,0,0.4,0.1,0.5,0.3l8,11.6
			c0.4,0.6,0.9,1.3,1.4,2.2c0.5,0.9,0.8,1.5,0.9,1.7h0.1c0-0.2-0.1-0.8-0.2-2c-0.1-1.1-0.2-2.1-0.2-2.8v-10.5c0-0.3,0.2-0.5,0.5-0.5
			H505.1z"/>
		<path d="M524.3,266.7c0.3,0,0.5,0.2,0.5,0.5v0.7c0,0.3-0.2,0.5-0.5,0.5h-9.1v6.7h7.8c0.4,0,0.5,0.1,0.5,0.5v0.7
			c0,0.3-0.2,0.5-0.5,0.5h-7.8v7.6c0,0.4-0.1,0.5-0.5,0.5h-0.9c-0.4,0-0.5-0.1-0.5-0.5v-17.3c0-0.4,0.1-0.5,0.5-0.5H524.3z"/>
		<path d="M530.4,272.8c0-4.1,2.5-6.5,7.1-6.5c4.5,0,7.1,2.4,7.1,6.5v6.1c0,4.1-2.5,6.5-7.1,6.5c-4.6,0-7.1-2.4-7.1-6.5V272.8z
			 M542.8,272.8c0-3-1.8-4.8-5.2-4.8s-5.2,1.7-5.2,4.8v6.1c0,3,1.9,4.8,5.2,4.8s5.2-1.7,5.2-4.8V272.8z"/>
		<path d="M559.5,266.7c3.4,0,5.4,2,5.4,5.3c0,2.8-1.5,4.6-4.2,5.1c0.7,0.3,1.2,0.9,1.7,1.8l2.9,5.6c0.2,0.3,0.1,0.5-0.3,0.5h-0.9
			c-0.5,0-0.9-0.2-1-0.5l-2.5-5c-0.8-1.7-1.7-2.2-3.7-2.2h-3.5v7.2c0,0.4-0.1,0.5-0.5,0.5h-0.9c-0.4,0-0.5-0.1-0.5-0.5v-17.3
			c0-0.4,0.1-0.5,0.5-0.5H559.5z M559.3,268.5h-5.8v7.1h5.8c2.3,0,3.7-1.3,3.7-3.5C563,269.8,561.7,268.5,559.3,268.5z"/>
		<path d="M588.1,266.7c0.4,0,0.5,0.1,0.5,0.5v17.3c0,0.4-0.1,0.5-0.5,0.5h-0.8c-0.4,0-0.5-0.1-0.5-0.5l0-10.5
			c0-1.6,0.1-3.1,0.3-4.6H587c-0.5,1.3-1.2,2.7-2,4l-3.9,6.9c-0.1,0.3-0.3,0.4-0.6,0.4H580c-0.3,0-0.5-0.1-0.6-0.4l-4-7
			c-0.6-1.1-1.3-2.4-1.9-4h-0.1c0.2,1.6,0.3,3.1,0.3,4.6v10.5c0,0.4-0.1,0.5-0.5,0.5h-0.7c-0.4,0-0.5-0.1-0.5-0.5v-17.3
			c0-0.4,0.1-0.5,0.5-0.5h0.7c0.3,0,0.6,0.1,0.7,0.4l6.4,11.3l6.4-11.3c0.2-0.4,0.3-0.4,0.7-0.4H588.1z"/>
		<path d="M610.6,284.6c0.1,0.3,0,0.5-0.4,0.5h-0.7c-0.5,0-0.9-0.2-0.9-0.5l-1.9-4.9h-8.1l-1.9,4.9c-0.1,0.4-0.3,0.5-0.9,0.5H595
			c-0.4,0-0.5-0.2-0.3-0.5l6.9-17.5c0.1-0.3,0.3-0.4,0.6-0.4h0.8c0.3,0,0.6,0.1,0.7,0.4L610.6,284.6z M603,270.2
			c-0.2-0.7-0.4-1.3-0.4-1.8h-0.1c0,0.5-0.1,1.1-0.3,1.8l-3.1,7.9h7L603,270.2z"/>
		<path d="M629.1,280.2c0.3,0.1,0.4,0.3,0.3,0.6c-0.9,2.9-2.8,4.4-6.6,4.5l-0.6,1.5c0.2-0.1,0.4-0.1,0.6-0.1c1.4,0,2.3,0.8,2.2,2.1
			c-0.1,1.7-1.3,2.5-3.1,2.5c-0.8,0-1.5-0.2-2.1-0.5c-0.2-0.1-0.3-0.3-0.3-0.5v-0.5c0-0.2,0.1-0.3,0.3-0.2c0.6,0.4,1.2,0.6,1.9,0.6
			c1.1,0,1.8-0.5,1.8-1.4c0-0.7-0.5-1.1-1.5-1.1c-0.3,0-0.6,0-0.9,0.1c-0.3,0-0.4-0.1-0.3-0.4l0.8-2c-4.1-0.2-6.4-2.7-6.4-6.5v-6.1
			c0-4.1,2.5-6.5,7.1-6.5c3.8,0,5.9,1.4,6.9,4.4c0.1,0.4,0.1,0.5-0.3,0.7l-0.8,0.3c-0.3,0.1-0.5,0-0.7-0.3c-0.7-2.3-2.2-3.3-5.1-3.3
			c-3.4,0-5.2,1.7-5.2,4.7v6.1c0,3,1.9,4.7,5.2,4.7c3,0,4.4-1.1,5.1-3.4c0.1-0.3,0.4-0.4,0.7-0.3L629.1,280.2z"/>
		<path d="M635.4,272.8c0-4.1,2.5-6.5,7.1-6.5c4.5,0,7.1,2.4,7.1,6.5v6.1c0,4.1-2.5,6.5-7.1,6.5c-4.6,0-7.1-2.4-7.1-6.5V272.8z
			 M647.7,272.8c0-3-1.8-4.8-5.2-4.8s-5.2,1.7-5.2,4.8v6.1c0,3,1.9,4.8,5.2,4.8s5.2-1.7,5.2-4.8V272.8z M646.1,262
			c0.2,0,0.3,0.1,0.3,0.3c0,1.7-0.7,2.6-2,2.6c-0.6,0-1.3-0.3-2-0.9c-0.7-0.6-1.3-0.9-1.8-0.9c-0.7,0-1,0.5-1,1.4
			c0,0.2-0.1,0.3-0.3,0.3h-0.5c-0.2,0-0.3-0.1-0.3-0.3c0-1.7,0.7-2.6,2-2.6c1.6,0,2.7,1.7,3.8,1.7c0.7,0,1-0.5,1-1.4
			c0-0.2,0.1-0.3,0.3-0.3H646.1z"/>
		<path d="M667.6,266.7c0.3,0,0.5,0.2,0.5,0.5v0.7c0,0.3-0.2,0.5-0.5,0.5h-9.1v6.4h8c0.3,0,0.5,0.2,0.5,0.5v0.7
			c0,0.3-0.2,0.5-0.5,0.5h-8v6.7h9.5c0.3,0,0.5,0.2,0.5,0.5v0.7c0,0.3-0.2,0.5-0.5,0.5h-10.8c-0.4,0-0.5-0.1-0.5-0.5v-17.3
			c0-0.4,0.1-0.5,0.5-0.5H667.6z"/>
		<path d="M681.2,266.4c3.5,0,5.4,1.2,6.8,4c0.2,0.3,0.1,0.5-0.3,0.7l-0.8,0.4c-0.3,0.1-0.5,0.1-0.7-0.2c-1-2.1-2.5-3-5-3
			c-3.1,0-4.8,1.2-4.8,3.4c0.1,1.6,0.8,2.4,2.3,2.8c1,0.3,1.7,0.4,3,0.6c1.5,0.2,2.3,0.3,3.6,0.7c0.6,0.2,1.1,0.5,1.5,0.9
			c0.7,0.7,1.4,1.9,1.4,3.5c0,3.4-2.5,5.4-7,5.4c-3.7,0-5.8-1.4-7-4.4c-0.1-0.3,0-0.6,0.3-0.7l0.8-0.3c0.3-0.1,0.5,0,0.7,0.3
			c1,2.2,2.7,3.4,5.2,3.4c3.4,0,5.1-1.2,5.1-3.6c-0.1-1.6-0.8-2.3-2.1-2.8c-1-0.3-1.6-0.4-2.9-0.5c-0.8-0.1-1.5-0.2-2-0.3
			c-0.5-0.1-1.1-0.3-1.8-0.5c-0.7-0.2-1.2-0.5-1.6-0.9c-0.8-0.7-1.4-1.9-1.4-3.5C674.5,268.4,677,266.4,681.2,266.4z"/>
		<path d="M710.7,266.4c3.5,0,5.4,1.2,6.8,4c0.2,0.3,0.1,0.5-0.3,0.7l-0.8,0.4c-0.3,0.1-0.5,0.1-0.7-0.2c-1-2.1-2.5-3-5-3
			c-3.1,0-4.8,1.2-4.8,3.4c0.1,1.6,0.8,2.4,2.3,2.8c1,0.3,1.7,0.4,3,0.6c1.5,0.2,2.3,0.3,3.6,0.7c0.6,0.2,1.1,0.5,1.5,0.9
			c0.7,0.7,1.4,1.9,1.4,3.5c0,3.4-2.5,5.4-7,5.4c-3.7,0-5.8-1.4-7-4.4c-0.1-0.3,0-0.6,0.3-0.7l0.8-0.3c0.3-0.1,0.5,0,0.7,0.3
			c1,2.2,2.7,3.4,5.2,3.4c3.4,0,5.1-1.2,5.1-3.6c-0.1-1.6-0.8-2.3-2.1-2.8c-1-0.3-1.6-0.4-2.9-0.5c-0.8-0.1-1.5-0.2-2-0.3
			c-0.5-0.1-1.1-0.3-1.8-0.5c-0.7-0.2-1.2-0.5-1.6-0.9c-0.8-0.7-1.4-1.9-1.4-3.5C704,268.4,706.4,266.4,710.7,266.4z"/>
		<path d="M723.7,272.8c0-4.1,2.5-6.5,7.1-6.5c4.5,0,7.1,2.4,7.1,6.5v6.1c0,4.1-2.5,6.5-7.1,6.5c-4.6,0-7.1-2.4-7.1-6.5V272.8z
			 M736,272.8c0-3-1.8-4.8-5.2-4.8s-5.2,1.7-5.2,4.8v6.1c0,3,1.9,4.8,5.2,4.8s5.2-1.7,5.2-4.8V272.8z"/>
		<path d="M752.8,266.7c3.2,0,5,1.7,5,4.7c0,2-0.8,3.4-2.4,4.1v0.1c2,0.5,3.1,2,3.1,4.5c0,3.1-2.1,4.9-5.3,4.9h-7.6
			c-0.4,0-0.5-0.1-0.5-0.5v-17.3c0-0.4,0.1-0.5,0.5-0.5H752.8z M752.6,268.5h-5.7v6.4h5.7c2.1,0,3.3-1.1,3.3-3.2
			C755.9,269.5,754.7,268.5,752.6,268.5z M756.5,279.9c0-1.1-0.3-1.9-0.9-2.5c-0.6-0.6-1.5-0.9-2.6-0.9h-6.1v6.7h6.1
			c1.1,0,2-0.3,2.6-0.9C756.2,281.9,756.5,281,756.5,279.9z"/>
		<path d="M773,266.7c3.4,0,5.4,2,5.4,5.3c0,2.8-1.5,4.6-4.2,5.1c0.7,0.3,1.2,0.9,1.7,1.8l2.9,5.6c0.2,0.3,0.1,0.5-0.3,0.5h-0.9
			c-0.5,0-0.9-0.2-1-0.5l-2.5-5c-0.8-1.7-1.7-2.2-3.7-2.2H767v7.2c0,0.4-0.1,0.5-0.5,0.5h-0.9c-0.4,0-0.5-0.1-0.5-0.5v-17.3
			c0-0.4,0.1-0.5,0.5-0.5H773z M772.8,268.5H767v7.1h5.8c2.3,0,3.7-1.3,3.7-3.5C776.5,269.8,775.2,268.5,772.8,268.5z"/>
		<path d="M796.4,266.7c0.3,0,0.5,0.2,0.5,0.5v0.7c0,0.3-0.2,0.5-0.5,0.5h-9.1v6.4h8c0.3,0,0.5,0.2,0.5,0.5v0.7
			c0,0.3-0.2,0.5-0.5,0.5h-8v6.7h9.5c0.3,0,0.5,0.2,0.5,0.5v0.7c0,0.3-0.2,0.5-0.5,0.5h-10.8c-0.4,0-0.5-0.1-0.5-0.5v-17.3
			c0-0.4,0.1-0.5,0.5-0.5H796.4z"/>
		<path d="M827.2,284.6c0.1,0.3,0,0.5-0.4,0.5h-0.7c-0.5,0-0.9-0.2-0.9-0.5l-1.9-4.9h-8.1l-1.9,4.9c-0.1,0.4-0.3,0.5-0.9,0.5h-0.7
			c-0.4,0-0.5-0.2-0.3-0.5l6.9-17.5c0.1-0.3,0.3-0.4,0.6-0.4h0.8c0.3,0,0.6,0.1,0.7,0.4L827.2,284.6z M819.6,270.2
			c-0.2-0.7-0.4-1.3-0.4-1.8h-0.1c0,0.5-0.1,1.1-0.3,1.8l-3.1,7.9h7L819.6,270.2z"/>
		<path d="M855,275.5c0.4,0,0.5,0.1,0.5,0.5v3.2c0,3.8-2.6,6.2-7.1,6.2c-4.6,0-7.1-2.5-7.1-6.5v-6.1c0-4.1,2.5-6.5,7.1-6.5
			c3.8,0,5.9,1.4,6.9,4.4c0.1,0.4,0.1,0.5-0.3,0.7l-0.8,0.3c-0.3,0.1-0.5,0-0.7-0.3c-0.7-2.3-2.2-3.3-5.1-3.3
			c-3.4,0-5.2,1.7-5.2,4.7v6.1c0,3,1.9,4.8,5.2,4.8c3.3,0,5.2-1.7,5.2-4.4v-1.9h-5c-0.4,0-0.5-0.1-0.5-0.5v-0.7
			c0-0.4,0.1-0.5,0.5-0.5H855z"/>
		<path d="M873.4,266.7c0.3,0,0.5,0.2,0.5,0.5v0.7c0,0.3-0.2,0.5-0.5,0.5h-9.1v6.4h8c0.3,0,0.5,0.2,0.5,0.5v0.7
			c0,0.3-0.2,0.5-0.5,0.5h-8v6.7h9.5c0.3,0,0.5,0.2,0.5,0.5v0.7c0,0.3-0.2,0.5-0.5,0.5h-10.8c-0.4,0-0.5-0.1-0.5-0.5v-17.3
			c0-0.4,0.1-0.5,0.5-0.5H873.4z"/>
		<path d="M887,266.4c3.5,0,5.4,1.2,6.8,4c0.2,0.3,0.1,0.5-0.3,0.7l-0.8,0.4c-0.3,0.1-0.5,0.1-0.7-0.2c-1-2.1-2.5-3-5-3
			c-3.1,0-4.8,1.2-4.8,3.4c0.1,1.6,0.8,2.4,2.3,2.8c1,0.3,1.7,0.4,3,0.6c1.5,0.2,2.3,0.3,3.6,0.7c0.6,0.2,1.1,0.5,1.5,0.9
			c0.7,0.7,1.4,1.9,1.4,3.5c0,3.4-2.5,5.4-7,5.4c-3.7,0-5.8-1.4-7-4.4c-0.1-0.3,0-0.6,0.3-0.7l0.8-0.3c0.3-0.1,0.5,0,0.7,0.3
			c1,2.2,2.7,3.4,5.2,3.4c3.4,0,5.1-1.2,5.1-3.6c-0.1-1.6-0.8-2.3-2.1-2.8c-1-0.3-1.6-0.4-2.9-0.5c-0.8-0.1-1.5-0.2-2-0.3
			c-0.5-0.1-1.1-0.3-1.8-0.5c-0.7-0.2-1.2-0.5-1.6-0.9c-0.8-0.7-1.4-1.9-1.4-3.5C880.3,268.4,882.8,266.4,887,266.4z"/>
		<path d="M911.6,266.7c0.4,0,0.5,0.1,0.5,0.5v0.7c0,0.4-0.1,0.5-0.5,0.5h-5.2v16.1c0,0.4-0.1,0.5-0.5,0.5H905
			c-0.4,0-0.5-0.1-0.5-0.5v-16.1h-5.2c-0.4,0-0.5-0.1-0.5-0.5v-0.7c0-0.4,0.1-0.5,0.5-0.5H911.6z"/>
		<path d="M930.4,284.6c0.1,0.3,0,0.5-0.4,0.5h-0.7c-0.5,0-0.9-0.2-0.9-0.5l-1.9-4.9h-8.1l-1.9,4.9c-0.1,0.4-0.3,0.5-0.9,0.5h-0.7
			c-0.4,0-0.5-0.2-0.3-0.5l6.9-17.5c0.1-0.3,0.3-0.4,0.6-0.4h0.8c0.3,0,0.6,0.1,0.7,0.4L930.4,284.6z M926.1,262.3
			c0.2,0,0.3,0.1,0.3,0.3c0,1.7-0.7,2.6-2,2.6c-0.6,0-1.3-0.3-2-0.9c-0.7-0.6-1.3-0.9-1.8-0.9c-0.7,0-1,0.5-1,1.4
			c0,0.2-0.1,0.3-0.3,0.3h-0.5c-0.2,0-0.3-0.1-0.3-0.3c0-1.7,0.7-2.6,2-2.6c1.6,0,2.7,1.7,3.8,1.7c0.7,0,1-0.5,1-1.4
			c0-0.2,0.1-0.3,0.3-0.3H926.1z M922.8,270.2c-0.2-0.7-0.4-1.3-0.4-1.8h-0.1c0,0.5-0.1,1.1-0.3,1.8l-3.1,7.9h7L922.8,270.2z"/>
		<path d="M935.2,272.8c0-4.1,2.5-6.5,7.1-6.5c4.5,0,7.1,2.4,7.1,6.5v6.1c0,4.1-2.5,6.5-7.1,6.5c-4.6,0-7.1-2.4-7.1-6.5V272.8z
			 M947.5,272.8c0-3-1.8-4.8-5.2-4.8c-3.4,0-5.2,1.7-5.2,4.8v6.1c0,3,1.9,4.8,5.2,4.8c3.4,0,5.2-1.7,5.2-4.8V272.8z"/>
		<path d="M488.3,306c4.8,0,7.5,2.6,7.5,6.8v4.7c0,4.2-2.7,6.8-7.5,6.8h-5.4c-0.4,0-0.5-0.1-0.5-0.5v-17.3c0-0.4,0.1-0.5,0.5-0.5
			H488.3z M493.9,312.8c0-3.2-2-5.1-5.6-5.1h-4.1v14.8h4.1c3.6,0,5.6-1.8,5.6-5.1V312.8z"/>
		<path d="M502.3,312.1c0-4.1,2.5-6.5,7.1-6.5c4.5,0,7.1,2.4,7.1,6.5v6.1c0,4.1-2.5,6.5-7.1,6.5c-4.6,0-7.1-2.4-7.1-6.5V312.1z
			 M514.6,312.1c0-3-1.8-4.8-5.2-4.8c-3.4,0-5.2,1.7-5.2,4.8v6.1c0,3,1.9,4.8,5.2,4.8c3.4,0,5.2-1.7,5.2-4.8V312.1z"/>
		<path d="M529.7,305.6c3.5,0,5.4,1.2,6.8,4c0.2,0.3,0.1,0.5-0.3,0.7l-0.8,0.4c-0.3,0.1-0.5,0.1-0.7-0.2c-1-2.1-2.5-3-5-3
			c-3.1,0-4.8,1.2-4.8,3.4c0.1,1.6,0.8,2.4,2.3,2.8c1,0.3,1.7,0.4,3,0.6c1.5,0.2,2.3,0.3,3.6,0.7c0.6,0.2,1.1,0.5,1.5,0.9
			c0.7,0.7,1.4,1.9,1.4,3.5c0,3.4-2.5,5.4-7,5.4c-3.7,0-5.8-1.4-7-4.4c-0.1-0.3,0-0.6,0.3-0.7l0.8-0.3c0.3-0.1,0.5,0,0.7,0.3
			c1,2.2,2.7,3.4,5.2,3.4c3.4,0,5.1-1.2,5.1-3.6c-0.1-1.6-0.8-2.3-2.1-2.8c-1-0.3-1.6-0.4-2.9-0.5c-0.8-0.1-1.5-0.2-2-0.3
			c-0.5-0.1-1.1-0.3-1.8-0.5c-0.7-0.2-1.2-0.5-1.6-0.9c-0.8-0.7-1.4-1.9-1.4-3.5C523,307.7,525.5,305.6,529.7,305.6z"/>
		<path d="M560.8,306c3.4,0,5.4,2,5.4,5.3c0,2.8-1.5,4.6-4.2,5.1c0.7,0.3,1.2,0.9,1.7,1.8l2.9,5.6c0.2,0.3,0.1,0.5-0.3,0.5h-0.9
			c-0.5,0-0.9-0.2-1-0.5l-2.5-5c-0.8-1.7-1.7-2.2-3.7-2.2h-3.5v7.2c0,0.4-0.1,0.5-0.5,0.5h-0.9c-0.4,0-0.5-0.1-0.5-0.5v-17.3
			c0-0.4,0.1-0.5,0.5-0.5H560.8z M560.6,307.8h-5.8v7.1h5.8c2.3,0,3.7-1.3,3.7-3.5C564.3,309.1,563,307.8,560.6,307.8z"/>
		<path d="M584.2,306c0.3,0,0.5,0.2,0.5,0.5v0.7c0,0.3-0.2,0.5-0.5,0.5h-9.1v6.4h8c0.3,0,0.5,0.2,0.5,0.5v0.7c0,0.3-0.2,0.5-0.5,0.5
			h-8v6.7h9.5c0.3,0,0.5,0.2,0.5,0.5v0.7c0,0.3-0.2,0.5-0.5,0.5h-10.8c-0.4,0-0.5-0.1-0.5-0.5v-17.3c0-0.4,0.1-0.5,0.5-0.5H584.2z"
			/>
		<path d="M597.8,305.6c3.5,0,5.4,1.2,6.8,4c0.2,0.3,0.1,0.5-0.3,0.7l-0.8,0.4c-0.3,0.1-0.5,0.1-0.7-0.2c-1-2.1-2.5-3-5-3
			c-3.1,0-4.8,1.2-4.8,3.4c0.1,1.6,0.8,2.4,2.3,2.8c1,0.3,1.7,0.4,3,0.6c1.5,0.2,2.3,0.3,3.6,0.7c0.6,0.2,1.1,0.5,1.5,0.9
			c0.7,0.7,1.4,1.9,1.4,3.5c0,3.4-2.5,5.4-7,5.4c-3.7,0-5.8-1.4-7-4.4c-0.1-0.3,0-0.6,0.3-0.7l0.8-0.3c0.3-0.1,0.5,0,0.7,0.3
			c1,2.2,2.7,3.4,5.2,3.4c3.4,0,5.1-1.2,5.1-3.6c-0.1-1.6-0.8-2.3-2.1-2.8c-1-0.3-1.6-0.4-2.9-0.5c-0.8-0.1-1.5-0.2-2-0.3
			c-0.5-0.1-1.1-0.3-1.8-0.5c-0.7-0.2-1.2-0.5-1.6-0.9c-0.8-0.7-1.4-1.9-1.4-3.5C591.1,307.7,593.5,305.6,597.8,305.6z"/>
		<path d="M614.1,301.2c0.4-0.2,0.7-0.2,0.9,0.1l0.4,0.5c0.2,0.3,0.2,0.4-0.1,0.5l-4.6,2.4c-0.3,0.1-0.5,0.1-0.6-0.1l-0.2-0.3
			c-0.2-0.2-0.2-0.4,0-0.5L614.1,301.2z M611.7,306.5c0-0.4,0.1-0.5,0.5-0.5h0.9c0.4,0,0.5,0.1,0.5,0.5v17.3c0,0.4-0.1,0.5-0.5,0.5
			h-0.9c-0.4,0-0.5-0.1-0.5-0.5V306.5z"/>
		<path d="M626.8,306c4.8,0,7.5,2.6,7.5,6.8v4.7c0,4.2-2.7,6.8-7.5,6.8h-5.4c-0.4,0-0.5-0.1-0.5-0.5v-17.3c0-0.4,0.1-0.5,0.5-0.5
			H626.8z M632.4,312.8c0-3.2-2-5.1-5.6-5.1h-4.1v14.8h4.1c3.6,0,5.6-1.8,5.6-5.1V312.8z"/>
		<path d="M643.1,318.1c0,3.1,1.7,4.9,5.1,4.9c3.3,0,5.1-1.8,5.1-4.9v-11.6c0-0.4,0.1-0.5,0.5-0.5h0.9c0.4,0,0.5,0.1,0.5,0.5v11.6
			c0,4.1-2.4,6.6-6.9,6.6c-4.5,0-6.9-2.5-6.9-6.6v-11.6c0-0.4,0.1-0.5,0.5-0.5h0.9c0.4,0,0.5,0.1,0.5,0.5V318.1z"/>
		<path d="M662,312.1c0-4.1,2.5-6.5,7.1-6.5c4.5,0,7.1,2.4,7.1,6.5v6.1c0,4.1-2.5,6.5-7.1,6.5c-4.6,0-7.1-2.4-7.1-6.5V312.1z
			 M674.3,312.1c0-3-1.8-4.8-5.2-4.8s-5.2,1.7-5.2,4.8v6.1c0,3,1.9,4.8,5.2,4.8s5.2-1.7,5.2-4.8V312.1z"/>
		<path d="M689.4,305.6c3.5,0,5.4,1.2,6.8,4c0.2,0.3,0.1,0.5-0.3,0.7l-0.8,0.4c-0.3,0.1-0.5,0.1-0.7-0.2c-1-2.1-2.5-3-5-3
			c-3.1,0-4.8,1.2-4.8,3.4c0.1,1.6,0.8,2.4,2.3,2.8c1,0.3,1.7,0.4,3,0.6c1.5,0.2,2.3,0.3,3.6,0.7c0.6,0.2,1.1,0.5,1.5,0.9
			c0.7,0.7,1.4,1.9,1.4,3.5c0,3.4-2.5,5.4-7,5.4c-3.7,0-5.8-1.4-7-4.4c-0.1-0.3,0-0.6,0.3-0.7l0.8-0.3c0.3-0.1,0.5,0,0.7,0.3
			c1,2.2,2.7,3.4,5.2,3.4c3.4,0,5.1-1.2,5.1-3.6c-0.1-1.6-0.8-2.3-2.1-2.8c-1-0.3-1.6-0.4-2.9-0.5c-0.8-0.1-1.5-0.2-2-0.3
			c-0.5-0.1-1.1-0.3-1.8-0.5c-0.7-0.2-1.2-0.5-1.6-0.9c-0.8-0.7-1.4-1.9-1.4-3.5C682.7,307.7,685.2,305.6,689.4,305.6z"/>
		<path d="M718.9,305.6c3.5,0,5.4,1.2,6.8,4c0.2,0.3,0.1,0.5-0.3,0.7l-0.8,0.4c-0.3,0.1-0.5,0.1-0.7-0.2c-1-2.1-2.5-3-5-3
			c-3.1,0-4.8,1.2-4.8,3.4c0.1,1.6,0.8,2.4,2.3,2.8c1,0.3,1.7,0.4,3,0.6c1.5,0.2,2.3,0.3,3.6,0.7c0.6,0.2,1.1,0.5,1.5,0.9
			c0.7,0.7,1.4,1.9,1.4,3.5c0,3.4-2.5,5.4-7,5.4c-3.7,0-5.8-1.4-7-4.4c-0.1-0.3,0-0.6,0.3-0.7l0.8-0.3c0.3-0.1,0.5,0,0.7,0.3
			c1,2.2,2.7,3.4,5.2,3.4c3.4,0,5.1-1.2,5.1-3.6c-0.1-1.6-0.8-2.3-2.1-2.8c-1-0.3-1.6-0.4-2.9-0.5c-0.8-0.1-1.5-0.2-2-0.3
			c-0.5-0.1-1.1-0.3-1.8-0.5c-0.7-0.2-1.2-0.5-1.6-0.9c-0.8-0.7-1.4-1.9-1.4-3.5C712.2,307.7,714.6,305.6,718.9,305.6z"/>
		<path d="M731.9,312.1c0-4.1,2.5-6.5,7.1-6.5c4.5,0,7.1,2.4,7.1,6.5v6.1c0,4.1-2.5,6.5-7.1,6.5c-4.6,0-7.1-2.4-7.1-6.5V312.1z
			 M744.2,312.1c0-3-1.8-4.8-5.2-4.8c-3.4,0-5.2,1.7-5.2,4.8v6.1c0,3,1.9,4.8,5.2,4.8c3.4,0,5.2-1.7,5.2-4.8V312.1z M740.5,300.9
			c0.4-0.2,0.7-0.2,0.9,0.1l0.4,0.5c0.2,0.3,0.2,0.4-0.1,0.5l-4.6,2.4c-0.3,0.1-0.5,0.1-0.6-0.1l-0.2-0.3c-0.2-0.2-0.2-0.4,0-0.5
			L740.5,300.9z"/>
		<path d="M754.6,306c0.4,0,0.5,0.1,0.5,0.5v16.1h8.8c0.3,0,0.5,0.2,0.5,0.5v0.7c0,0.3-0.2,0.5-0.5,0.5h-10.1
			c-0.4,0-0.5-0.1-0.5-0.5v-17.3c0-0.4,0.1-0.5,0.5-0.5H754.6z"/>
		<path d="M770.2,306.5c0-0.4,0.1-0.5,0.5-0.5h0.9c0.4,0,0.5,0.1,0.5,0.5v17.3c0,0.4-0.1,0.5-0.5,0.5h-0.9c-0.4,0-0.5-0.1-0.5-0.5
			V306.5z"/>
		<path d="M785.7,306c4.8,0,7.5,2.6,7.5,6.8v4.7c0,4.2-2.7,6.8-7.5,6.8h-5.4c-0.4,0-0.5-0.1-0.5-0.5v-17.3c0-0.4,0.1-0.5,0.5-0.5
			H785.7z M791.3,312.8c0-3.2-2-5.1-5.6-5.1h-4.1v14.8h4.1c3.6,0,5.6-1.8,5.6-5.1V312.8z"/>
		<path d="M799.7,312.1c0-4.1,2.5-6.5,7.1-6.5c4.5,0,7.1,2.4,7.1,6.5v6.1c0,4.1-2.5,6.5-7.1,6.5c-4.6,0-7.1-2.4-7.1-6.5V312.1z
			 M812,312.1c0-3-1.8-4.8-5.2-4.8s-5.2,1.7-5.2,4.8v6.1c0,3,1.9,4.8,5.2,4.8s5.2-1.7,5.2-4.8V312.1z"/>
		<path d="M827.1,305.6c3.5,0,5.4,1.2,6.8,4c0.2,0.3,0.1,0.5-0.3,0.7l-0.8,0.4c-0.3,0.1-0.5,0.1-0.7-0.2c-1-2.1-2.5-3-5-3
			c-3.1,0-4.8,1.2-4.8,3.4c0.1,1.6,0.8,2.4,2.3,2.8c1,0.3,1.7,0.4,3,0.6c1.5,0.2,2.3,0.3,3.6,0.7c0.6,0.2,1.1,0.5,1.5,0.9
			c0.7,0.7,1.4,1.9,1.4,3.5c0,3.4-2.5,5.4-7,5.4c-3.7,0-5.8-1.4-7-4.4c-0.1-0.3,0-0.6,0.3-0.7l0.8-0.3c0.3-0.1,0.5,0,0.7,0.3
			c1,2.2,2.7,3.4,5.2,3.4c3.4,0,5.1-1.2,5.1-3.6c-0.1-1.6-0.8-2.3-2.1-2.8c-1-0.3-1.6-0.4-2.9-0.5c-0.8-0.1-1.5-0.2-2-0.3
			c-0.5-0.1-1.1-0.3-1.8-0.5c-0.7-0.2-1.2-0.5-1.6-0.9c-0.8-0.7-1.4-1.9-1.4-3.5C820.4,307.7,822.8,305.6,827.1,305.6z"/>
	</g>
</g>
</svg>
